<?xml version="1.0" encoding="utf-8"?>
<!-- Generator: Adobe Illustrator 21.0.2, SVG Export Plug-In . SVG Version: 6.00 Build 0)  -->
<svg version="1.1" id="Layer_1" xmlns="http://www.w3.org/2000/svg" xmlns:xlink="http://www.w3.org/1999/xlink" x="0px" y="0px"
	 viewBox="0 0 46 30" style="enable-background:new 0 0 46 30;" xml:space="preserve">
<style type="text/css">
	.st0{fill:#606060;}
</style>
<path class="st0" d="M0,30h14V16H0V30z M4.8,23l3.6-3.6l0.7,0.7L6.3,23l2.9,2.9l-0.7,0.7L4.8,23z M16,14h14V0H16V14z M19.4,8.5
	L23,4.8l3.6,3.6l-0.7,0.7L23,6.3l-2.9,2.9C20.1,9.2,19.4,8.5,19.4,8.5z M32,30h14V16H32V30z M36.8,25.9l2.9-2.9l-2.9-2.9l0.7-0.7
	l3.6,3.6l-3.6,3.6L36.8,25.9z"/>
</svg>
