<?xml version="1.0" encoding="UTF-8"?>
<svg width="42px" height="43px" viewBox="0 0 42 43" version="1.1" xmlns="http://www.w3.org/2000/svg" xmlns:xlink="http://www.w3.org/1999/xlink">
    <!-- Generator: Sketch 45.2 (43514) - http://www.bohemiancoding.com/sketch -->
    <title>404-cover-char</title>
    <desc>Created with Sketch.</desc>
    <defs></defs>
    <g id="Page-1" stroke="none" stroke-width="1" fill="none" fill-rule="evenodd">
        <g id="404-cover-char" fill="#2F2F2F">
            <path d="M41.0239,7.9121 C40.4339,8.7251 39.6199,9.2341 38.6439,9.4371 L38.6439,10.4731 L38.6649,10.4731 L38.6649,14.3371 C38.6649,15.6801 38.1969,16.8191 37.2409,17.7751 C36.2849,18.7301 35.1459,19.1981 33.8029,19.1981 L25.5689,19.1981 L25.5689,17.2661 L33.7829,17.2661 C34.5969,17.2661 35.2879,16.9811 35.8569,16.4121 C36.4269,15.8421 36.7119,15.1511 36.7119,14.3371 L36.7119,11.6211 L36.6909,11.6211 L36.6909,9.4371 C35.7149,9.2341 34.9019,8.7251 34.2509,7.9121 C33.5999,7.0991 33.2739,6.1831 33.2739,5.1661 C33.2739,3.9861 33.6819,2.9701 34.4749,2.1361 L35.8369,3.4981 C35.4099,3.9461 35.2069,4.4951 35.2069,5.1661 C35.2069,5.8581 35.4509,6.4271 35.8989,6.8951 C36.3659,7.3631 36.9359,7.5861 37.6269,7.5861 C38.3189,7.5861 38.8879,7.3631 39.3559,6.8951 C39.8239,6.4271 40.0469,5.8581 40.0469,5.1661 C40.0469,4.4951 39.8239,3.9461 39.3969,3.4781 L40.7589,2.1151 C41.5729,2.9491 41.9999,3.9861 41.9999,5.1661 C41.9999,6.1831 41.6749,7.0991 41.0239,7.9121" id="Fill-1"></path>
            <path d="M24.0405,29.5733 C25.7605,29.0963 27.0445,27.4553 27.0445,25.5133 L27.0445,23.7123 L27.0445,23.5083 L27.0445,17.2643 L11.4305,17.2643 L8.5325,17.2643 L8.1965,17.2643 C6.8545,17.2643 5.7155,17.7323 4.7595,18.6883 C3.8035,19.6443 3.3355,20.7833 3.3355,22.1253 L3.3355,25.9903 L3.3555,27.0253 C2.3795,27.2283 1.5655,27.7373 0.9765,28.5503 C0.3255,29.3643 -0.0005,30.2793 -0.0005,31.2973 C-0.0005,32.4763 0.4275,33.5133 1.2405,34.3473 L2.6035,32.9843 C2.1765,32.5163 1.9525,31.9673 1.9525,31.2973 C1.9525,30.6053 2.1765,30.0353 2.6445,29.5673 C3.1115,29.0993 3.6815,28.8763 4.3735,28.8763 C5.0645,28.8763 5.6335,29.0993 6.1015,29.5673 C6.5495,30.0353 6.7925,30.6053 6.7925,31.2973 C6.7925,31.9673 6.5895,32.5163 6.1625,32.9653 L7.5255,34.3273 C8.3185,33.4933 8.7255,32.4763 8.7255,31.2973 C8.7255,30.2793 8.3995,29.3643 7.7485,28.5503 C7.0985,27.7373 6.2845,27.2283 5.3085,27.0253 L5.3085,24.8423 L5.2885,22.1253 C5.2885,21.3123 5.5725,20.6203 6.1425,20.0503 C6.7115,19.4813 7.4035,19.1963 8.2165,19.1963 L8.5325,19.1963 L8.5325,23.5083 L8.5325,23.7123 L8.5325,25.5133 C8.5325,27.5963 10.0085,29.3383 11.9185,29.6593 L11.9185,38.3213 C10.9425,38.5243 10.1285,39.0333 9.4775,39.8463 C8.8475,40.6393 8.5215,41.5143 8.5015,42.4703 L17.2885,42.4703 C17.2675,41.4943 16.9425,40.6193 16.3115,39.8463 C15.6615,39.0333 14.8475,38.5243 13.8715,38.3213 L13.8715,29.7263 L22.0875,29.7263 L22.0875,38.3213 C21.1115,38.5243 20.2985,39.0333 19.6475,39.8463 C19.0175,40.6393 18.6915,41.5143 18.6715,42.4703 L27.4575,42.4703 C27.4375,41.4943 27.1115,40.6193 26.4815,39.8463 C25.8305,39.0333 25.0175,38.5243 24.0405,38.3213 L24.0405,29.5733 Z" id="Fill-3"></path>
            <path d="M25.6475,8.3388 C24.5805,8.3388 23.7155,7.4738 23.7155,6.4068 C23.7155,5.3398 24.5805,4.4748 25.6475,4.4748 C26.7145,4.4748 27.5795,5.3398 27.5795,6.4068 C27.5795,7.4738 26.7145,8.3388 25.6475,8.3388 L25.6475,8.3388 Z M10.3935,8.3388 C9.3265,8.3388 8.4605,7.4738 8.4605,6.4068 C8.4605,5.3398 9.3265,4.4748 10.3935,4.4748 C11.4605,4.4748 12.3255,5.3398 12.3255,6.4068 C12.3255,7.4738 11.4605,8.3388 10.3935,8.3388 L10.3935,8.3388 Z M4.7995,15.8638 L31.0365,15.8638 L31.0365,-0.0002 L4.7995,-0.0002 L4.7995,15.8638 Z" id="Fill-6"></path>
        </g>
    </g>
</svg>