<svg width="827" height="220" viewBox="0 0 827 220" fill="none" xmlns="http://www.w3.org/2000/svg">
<path d="M157.42 72.8997C184.615 72.8997 206.661 68.7662 206.661 63.6672C206.661 58.5681 184.615 54.4346 157.42 54.4346C130.225 54.4346 108.18 58.5681 108.18 63.6672C108.18 68.7662 130.225 72.8997 157.42 72.8997Z" fill="#EF6076"/>
<path d="M204.98 160.192L156.579 167.466L109.297 160.192V66.4668L156.579 74.8601L204.98 66.4668V160.192Z" fill="white"/>
<path d="M286.117 133.612L303.463 112.629L287.236 93.3243C285.837 91.3659 284.998 89.967 284.998 88.0086C284.998 84.0917 288.076 81.5737 291.433 81.5737C294.231 81.5737 296.189 82.9726 297.868 84.931L311.857 103.116L325.845 84.931C327.524 82.9726 329.482 81.2939 332 81.2939C335.637 81.2939 338.715 84.0917 338.715 87.449C338.715 89.4074 337.876 90.8063 336.757 92.2052L320.25 112.069L337.596 132.493C338.995 134.451 339.834 135.85 339.834 137.809C339.834 141.725 336.757 144.243 333.399 144.243C330.601 144.243 328.643 142.845 326.964 140.606L312.136 121.302L297.308 140.606C295.63 142.565 293.671 144.243 291.153 144.243C287.516 144.243 284.718 141.446 284.718 138.088C284.159 136.41 284.718 135.011 286.117 133.612Z" fill="black"/>
<path d="M354.661 88.8479C354.661 84.931 357.739 81.8535 361.656 81.8535C365.572 81.8535 368.65 84.931 368.65 88.8479V95.2827C372.007 87.7288 377.882 81.8535 384.038 81.8535C388.514 81.8535 391.032 84.6513 391.032 88.8479C391.032 92.485 388.514 95.003 385.436 95.5625C375.365 97.2412 368.65 105.075 368.65 119.623V137.809C368.65 141.725 365.572 144.803 361.656 144.803C357.739 144.803 354.661 141.725 354.661 137.809V88.8479Z" fill="black"/>
<path d="M403.343 88.8479C403.343 84.931 406.42 81.8535 410.337 81.8535C414.254 81.8535 417.332 84.931 417.332 88.8479V92.7647C421.808 86.3299 428.243 81.2939 438.315 81.2939C452.863 81.2939 466.852 92.7647 466.852 113.188V113.468C466.852 133.892 452.863 145.362 438.315 145.362C427.963 145.362 421.808 140.327 417.332 134.451V156.274C417.332 160.191 414.254 163.268 410.337 163.268C406.42 163.268 403.343 160.191 403.343 156.274V88.8479ZM452.583 113.188C452.583 101.158 444.47 93.3243 434.957 93.3243C425.445 93.3243 417.052 101.158 417.052 112.909V113.188C417.052 124.939 425.445 132.773 434.957 132.773C444.47 133.052 452.583 125.498 452.583 113.188Z" fill="black"/>
<path d="M487.554 127.175C492.311 127.175 495.668 130.532 495.668 135.288V136.407C495.668 140.884 492.311 144.521 487.554 144.521C482.798 144.521 479.161 141.164 479.161 136.407V135.288C479.441 130.812 482.798 127.175 487.554 127.175Z" fill="black"/>
<path d="M506.859 113.467C506.859 95.8408 520.289 81.0127 538.754 81.0127C548.546 81.0127 554.981 84.0902 560.296 88.5666C561.136 89.406 562.535 91.0846 562.535 93.3228C562.535 96.9599 559.737 99.7576 556.1 99.7576C554.421 99.7576 552.743 98.9183 551.903 98.3588C548.266 95.2812 544.349 93.043 538.754 93.043C528.402 93.043 520.848 101.996 520.848 112.627V112.907C520.848 123.818 528.402 132.491 539.313 132.491C544.909 132.491 549.105 130.253 553.022 126.896C553.862 126.057 555.261 125.497 556.939 125.497C560.296 125.497 563.094 128.295 563.094 131.652C563.094 133.61 562.255 135.009 561.136 136.128C555.54 141.444 549.105 144.801 538.754 144.801C520.568 145.361 506.859 131.092 506.859 113.467Z" fill="black"/>
<path d="M573.445 126.336C573.445 112.907 583.797 106.192 598.905 106.192C605.899 106.192 610.655 107.312 615.412 108.71V107.312C615.412 98.6386 610.096 93.8824 600.304 93.8824C594.988 93.8824 590.512 94.7217 586.595 96.4004C585.755 96.6801 585.196 96.6801 584.357 96.6801C580.999 96.6801 578.481 94.1622 578.481 90.8049C578.481 88.2869 580.16 86.0487 582.398 85.2093C588.273 82.9711 594.149 81.5723 602.262 81.5723C611.495 81.5723 618.209 84.0902 622.686 88.5666C627.162 93.0431 629.4 99.4779 629.4 107.591V137.807C629.4 141.724 626.323 144.522 622.406 144.522C618.209 144.522 615.412 141.724 615.412 138.646V136.408C611.215 141.444 604.78 145.361 595.268 145.361C583.517 145.081 573.445 138.646 573.445 126.336ZM615.412 121.86V117.663C611.775 116.264 607.018 115.145 601.423 115.145C592.47 115.145 586.875 119.062 586.875 125.497V125.777C586.875 131.652 592.19 135.009 598.905 135.009C608.417 135.009 615.412 129.694 615.412 121.86Z" fill="black"/>
<path d="M649.545 94.4426H647.027C643.669 94.4426 641.151 91.9246 641.151 88.5673C641.151 85.21 643.949 82.692 647.027 82.692H649.545V78.2156C649.545 71.501 651.223 66.465 654.581 63.1077C657.938 59.7504 662.414 58.3516 668.569 58.3516C671.367 58.3516 673.605 58.6313 675.564 58.9111C678.082 59.1909 680.32 61.7089 680.32 64.7864C680.32 67.8639 677.522 70.6617 674.445 70.6617C673.605 70.6617 672.486 70.3819 671.647 70.3819C666.331 70.3819 663.533 73.1797 663.533 79.6145V82.9718H674.445C677.802 82.9718 680.32 85.4898 680.32 88.8471C680.32 92.2044 677.522 94.7223 674.445 94.7223H663.813V137.808C663.813 141.725 660.736 144.802 656.819 144.802C652.902 144.802 649.824 141.725 649.824 137.808L649.545 94.4426Z" fill="black"/>
<path d="M717.531 145.362C699.625 145.362 685.916 132.493 685.916 113.468V113.188C685.916 95.5625 698.506 81.2939 715.852 81.2939C735.436 81.2939 744.949 97.2411 744.949 111.51C744.949 115.427 741.871 118.224 738.234 118.224H699.625C701.024 128.296 708.298 133.892 717.251 133.892C723.126 133.892 727.882 131.933 731.799 128.576C732.918 127.737 733.758 127.177 735.436 127.177C738.514 127.177 741.032 129.695 741.032 132.773C741.032 134.451 740.192 136.13 739.073 136.969C734.317 142.285 727.323 145.362 717.531 145.362ZM731.519 108.992C730.68 100.039 725.085 92.7647 715.852 92.7647C707.179 92.7647 701.304 99.4793 699.905 108.992H731.519Z" fill="black"/>
<path d="M236.596 111.229C236.596 95.5618 225.964 82.4124 211.416 78.4955V63.9472V63.6674V63.3876C211.416 63.1079 211.416 63.1079 211.416 62.8281C210.857 55.8337 201.344 53.036 192.951 51.0775C183.439 49.1191 170.849 48 157.419 48C143.99 48 131.4 49.1191 121.888 51.0775C113.495 52.7562 103.982 55.5539 103.423 62.8281C103.423 63.1079 103.423 63.1079 103.423 63.3876V63.6674V63.9472V152.636C103.423 154.035 103.703 155.154 104.262 156.553C109.298 168.303 136.157 172.5 157.699 172.5C179.242 172.5 205.821 168.303 211.136 156.553C211.696 155.434 211.976 154.035 211.976 152.636V143.683C225.964 140.046 236.596 126.897 236.596 111.229ZM119.65 63.3876C126.644 61.4292 139.514 59.4708 157.419 59.4708C175.325 59.4708 188.195 61.4292 195.189 63.3876C196.028 63.6674 196.868 63.9472 197.707 64.227C191.272 66.4652 177.843 68.7034 157.699 68.7034C137.555 68.7034 123.846 66.1854 117.691 64.227C117.971 63.6674 118.81 63.3876 119.65 63.3876ZM200.505 152.636C198.826 155.993 182.879 161.869 157.14 161.869C131.4 161.869 115.453 155.713 113.775 152.636V74.2989C116.293 75.1382 119.09 75.6978 121.608 76.2573C131.121 78.2157 143.71 79.3348 157.14 79.3348C170.569 79.3348 183.159 78.2157 192.671 76.2573C195.189 75.6978 197.987 75.1382 200.505 74.2989V152.636ZM211.416 132.492V89.9663C219.809 93.3236 225.685 101.717 225.685 111.229C225.685 121.021 219.809 129.135 211.416 132.492Z" fill="black"/>
<path d="M159.939 107.592C163.493 107.592 166.374 104.711 166.374 101.157C166.374 97.6036 163.493 94.7227 159.939 94.7227C156.385 94.7227 153.504 97.6036 153.504 101.157C153.504 104.711 156.385 107.592 159.939 107.592Z" fill="black"/>
<path d="M89.4348 98.9185C92.9887 98.9185 95.8697 96.0375 95.8697 92.4837C95.8697 88.9298 92.9887 86.0488 89.4348 86.0488C85.881 86.0488 83 88.9298 83 92.4837C83 96.0375 85.881 98.9185 89.4348 98.9185Z" fill="black"/>
<path d="M138.676 123.818C136.438 123.818 134.759 125.497 134.759 127.735C134.759 129.973 132.801 131.932 130.563 131.932C128.324 131.932 126.366 129.973 126.366 127.735C126.366 125.497 124.687 123.818 122.449 123.818C120.211 123.818 118.532 125.497 118.532 127.735C118.532 134.17 123.848 139.486 130.283 139.486C136.718 139.486 142.033 134.17 142.033 127.735C142.313 125.497 140.634 123.818 138.676 123.818Z" fill="black"/>
</svg>
