<svg width="827" height="220" viewBox="0 0 827 220" fill="none" xmlns="http://www.w3.org/2000/svg">
<rect x="458.835" y="0.443359" width="52.3198" height="221.671" transform="rotate(30 458.835 0.443359)" fill="white"/>
<g style="mix-blend-mode:multiply">
<path d="M157.372 149.895H144.67C144.34 149.895 144.175 149.711 144.175 149.343V84.8975H129.55C129.183 84.8975 129 84.7135 129 84.3457L129.11 71.7104C129.11 71.4162 129.257 71.269 129.55 71.269H172.327C172.73 71.269 172.932 71.4162 172.932 71.7104V84.3457C172.932 84.7135 172.785 84.8975 172.492 84.8975H157.701L157.811 149.343C157.811 149.711 157.665 149.895 157.372 149.895Z" fill="#FF0000"/>
<path d="M189.374 149.895H176.618C176.325 149.895 176.178 149.711 176.178 149.343L176.288 71.7104C176.288 71.4162 176.471 71.269 176.838 71.269H189.374C189.741 71.269 189.924 71.4162 189.924 71.7104L189.814 102.443H206.694V71.7104C206.694 71.4162 206.841 71.269 207.134 71.269H219.67C220.037 71.269 220.22 71.4162 220.22 71.7104L220.44 149.343C220.44 149.711 220.257 149.895 219.89 149.895H207.244C206.877 149.895 206.694 149.711 206.694 149.343V116.127H189.814V149.343C189.814 149.711 189.667 149.895 189.374 149.895Z" fill="#FF0000"/>
<path d="M264.209 149.895H227.81C227.517 149.895 227.37 149.711 227.37 149.343L227.48 71.7104C227.48 71.4162 227.627 71.269 227.92 71.269H264.099C264.392 71.269 264.539 71.453 264.539 71.8208V84.4561C264.539 84.7503 264.392 84.8975 264.099 84.8975H241.006V102.554H264.099C264.392 102.554 264.539 102.701 264.539 102.995L264.649 115.796C264.649 116.09 264.502 116.237 264.209 116.237H241.006V135.99H264.209C264.502 135.99 264.649 136.174 264.649 136.542V149.453C264.649 149.747 264.502 149.895 264.209 149.895Z" fill="#FF0000"/>
<path d="M320.132 149.784L299.953 149.895C299.586 149.895 299.403 149.711 299.403 149.343L299.623 71.7104C299.623 71.4162 299.769 71.269 300.063 71.269L321.121 71.1587C325.3 71.0483 329.076 72.0047 332.448 74.0278C335.857 76.0509 338.569 78.7913 340.586 82.249C342.638 85.6699 343.665 89.4587 343.665 93.6152V126.059C343.665 130.399 342.62 134.372 340.531 137.977C338.405 141.545 335.582 144.395 332.063 146.529C328.544 148.625 324.567 149.711 320.132 149.784ZM321.121 84.6768L313.259 84.7871L313.149 135.99H320.132C322.917 135.99 325.263 135.015 327.17 133.066C329.076 131.116 330.029 128.781 330.029 126.059V93.5049C330.029 91.1139 329.149 89.0356 327.389 87.27C325.63 85.4676 323.541 84.6032 321.121 84.6768Z" fill="#FF0000"/>
<path d="M363.571 149.895H350.815C350.448 149.895 350.265 149.711 350.265 149.343L350.375 71.7104C350.375 71.4162 350.521 71.269 350.815 71.269H363.461C363.754 71.269 363.901 71.4162 363.901 71.7104L364.011 149.343C364.011 149.711 363.864 149.895 363.571 149.895Z" fill="#FF0000"/>
<path d="M367.862 149.343L381.828 71.7104C381.901 71.4162 382.084 71.269 382.377 71.269H398.708C399.001 71.269 399.184 71.4162 399.257 71.7104L412.673 149.343C412.71 149.711 412.563 149.895 412.233 149.895H399.752C399.386 149.895 399.184 149.711 399.147 149.343L397.938 141.066H382.597L381.388 149.343C381.351 149.711 381.168 149.895 380.838 149.895H368.302C368.008 149.895 367.862 149.711 367.862 149.343ZM391.065 97.2568L390.405 93.0635L389.91 97.2568L384.852 128.983H395.683L391.065 97.2568Z" fill="#FF0000"/>
<path d="M438.078 150.998C434.009 150.998 430.344 149.986 427.081 147.963C423.782 145.94 421.125 143.218 419.109 139.797C417.129 136.376 416.14 132.551 416.14 128.321V92.5117C416.14 88.3919 417.148 84.64 419.164 81.2559C421.143 77.835 423.801 75.113 427.136 73.0898C430.472 71.0299 434.119 70 438.078 70C442.22 70 445.959 70.9932 449.295 72.9795C452.63 75.0026 455.269 77.7062 457.212 81.0903C459.192 84.4744 460.181 88.2816 460.181 92.5117V97.6982C460.181 97.9925 459.998 98.1396 459.632 98.1396H446.985C446.692 98.1396 446.545 97.9925 446.545 97.6982V93.3945C446.545 90.5254 445.739 88.1528 444.126 86.2769C442.513 84.4009 440.497 83.4629 438.078 83.4629C435.915 83.4629 433.991 84.3641 432.305 86.1665C430.619 87.9689 429.775 90.084 429.775 92.5117V128.321C429.775 130.785 430.6 132.919 432.25 134.721C433.899 136.487 435.842 137.37 438.078 137.37C440.497 137.37 442.513 136.505 444.126 134.776C445.739 133.011 446.545 130.859 446.545 128.321V122.748H438.683C438.28 122.748 438.078 122.564 438.078 122.196V109.561C438.078 109.193 438.28 109.009 438.683 109.009H459.741C460.035 109.009 460.181 109.193 460.181 109.561V128.321C460.181 132.551 459.192 136.376 457.212 139.797C455.196 143.218 452.539 145.94 449.24 147.963C445.941 149.986 442.22 150.998 438.078 150.998Z" fill="#FF0000"/>
<path d="M486.741 150.998C482.745 150.998 479.061 149.968 475.689 147.908C472.353 145.848 469.659 143.108 467.606 139.687C465.59 136.229 464.582 132.441 464.582 128.321L464.692 92.5117C464.692 88.3184 465.7 84.548 467.716 81.2007C469.696 77.8166 472.372 75.113 475.744 73.0898C479.116 71.0299 482.782 70 486.741 70C490.846 70 494.53 71.0116 497.792 73.0347C501.091 75.0578 503.731 77.7798 505.71 81.2007C507.726 84.5848 508.734 88.3551 508.734 92.5117L508.844 128.321C508.844 132.441 507.854 136.211 505.875 139.632C503.859 143.09 501.183 145.848 497.847 147.908C494.512 149.968 490.809 150.998 486.741 150.998ZM486.741 137.37C489.013 137.37 490.993 136.45 492.679 134.611C494.365 132.735 495.208 130.638 495.208 128.321L495.098 92.5117C495.098 90.0104 494.31 87.8953 492.734 86.1665C491.158 84.4377 489.16 83.5732 486.741 83.5732C484.431 83.5732 482.452 84.4193 480.802 86.1113C479.153 87.8034 478.328 89.9368 478.328 92.5117V128.321C478.328 130.785 479.153 132.919 480.802 134.721C482.452 136.487 484.431 137.37 486.741 137.37Z" fill="#FF0000"/>
<path d="M527.376 149.895H516.104C515.518 149.895 515.224 149.637 515.224 149.122L515.114 72.1519C515.114 71.5633 515.408 71.269 515.994 71.269H526.166L545.19 115.796L544.64 72.1519C544.64 71.5633 544.97 71.269 545.63 71.269H556.792C557.232 71.269 557.452 71.5633 557.452 72.1519L557.562 149.232C557.562 149.674 557.378 149.895 557.012 149.895H547.115L527.596 108.292L528.42 149.012C528.42 149.6 528.072 149.895 527.376 149.895Z" fill="#FF0000"/>
<path d="M561.303 149.343L575.269 71.7104C575.342 71.4162 575.525 71.269 575.818 71.269H592.148C592.442 71.269 592.625 71.4162 592.698 71.7104L606.114 149.343C606.151 149.711 606.004 149.895 605.674 149.895H593.193C592.827 149.895 592.625 149.711 592.588 149.343L591.379 141.066H576.038L574.829 149.343C574.792 149.711 574.609 149.895 574.279 149.895H561.743C561.449 149.895 561.303 149.711 561.303 149.343ZM584.506 97.2568L583.846 93.0635L583.351 97.2568L578.293 128.983H589.124L584.506 97.2568Z" fill="#FF0000"/>
<path d="M647.739 149.895H611.34C611.047 149.895 610.9 149.711 610.9 149.343L611.01 71.8208C611.01 71.453 611.193 71.269 611.56 71.269H624.096C624.463 71.269 624.646 71.453 624.646 71.8208L624.536 135.99H647.739C648.106 135.99 648.289 136.174 648.289 136.542V149.343C648.289 149.711 648.106 149.895 647.739 149.895Z" fill="#FF0000"/>
<path d="M672.539 150.998C668.543 150.998 664.859 149.968 661.487 147.908C658.151 145.848 655.476 143.108 653.46 139.687C651.48 136.229 650.49 132.441 650.49 128.321V123.134C650.49 122.73 650.674 122.527 651.04 122.527H663.686C663.98 122.527 664.126 122.73 664.126 123.134V128.321C664.126 130.785 664.951 132.919 666.601 134.721C668.25 136.487 670.23 137.37 672.539 137.37C674.885 137.37 676.883 136.468 678.532 134.666C680.182 132.827 681.006 130.712 681.006 128.321C681.006 125.562 679.21 123.153 675.618 121.093C675.031 120.725 674.262 120.284 673.309 119.769C672.392 119.217 671.293 118.591 670.01 117.893C668.727 117.194 667.48 116.513 666.271 115.851C665.061 115.152 663.888 114.49 662.752 113.865C658.646 111.437 655.586 108.402 653.57 104.761C651.59 101.082 650.6 96.9626 650.6 92.4014C650.6 88.208 651.627 84.4193 653.679 81.0352C655.732 77.6878 658.408 75.0394 661.707 73.0898C665.043 71.1035 668.653 70.1104 672.539 70.1104C676.534 70.1104 680.2 71.1035 683.536 73.0898C686.871 75.113 689.529 77.7982 691.508 81.1455C693.524 84.4928 694.532 88.2448 694.532 92.4014V101.671C694.532 101.965 694.386 102.112 694.092 102.112H681.446C681.153 102.112 681.006 101.965 681.006 101.671L680.896 92.4014C680.896 89.7529 680.072 87.6011 678.422 85.9458C676.773 84.2905 674.811 83.4629 672.539 83.4629C670.23 83.4629 668.25 84.3457 666.601 86.1113C664.951 87.877 664.126 89.9736 664.126 92.4014C664.126 94.8659 664.64 96.9258 665.666 98.5811C666.729 100.236 668.653 101.818 671.439 103.326C671.732 103.473 672.411 103.841 673.474 104.43C674.537 105.018 675.71 105.68 676.993 106.416C678.312 107.115 679.503 107.759 680.566 108.347C681.629 108.899 682.271 109.23 682.491 109.34C686.23 111.437 689.181 114.012 691.343 117.065C693.543 120.118 694.642 123.87 694.642 128.321C694.642 132.625 693.653 136.487 691.673 139.908C689.657 143.329 686.981 146.032 683.646 148.019C680.31 150.005 676.608 150.998 672.539 150.998Z" fill="#FF0000"/>
</g>
<g style="mix-blend-mode:multiply">
<path d="M152.801 146.895H140.1C139.77 146.895 139.605 146.711 139.605 146.343V81.8975H124.98C124.613 81.8975 124.43 81.7135 124.43 81.3457L124.54 68.7104C124.54 68.4162 124.686 68.269 124.98 68.269H167.757C168.16 68.269 168.362 68.4162 168.362 68.7104V81.3457C168.362 81.7135 168.215 81.8975 167.922 81.8975H153.131L153.241 146.343C153.241 146.711 153.094 146.895 152.801 146.895Z" fill="#0047FF"/>
<path d="M184.804 146.895H172.048C171.754 146.895 171.608 146.711 171.608 146.343L171.718 68.7104C171.718 68.4162 171.901 68.269 172.268 68.269H184.804C185.17 68.269 185.354 68.4162 185.354 68.7104L185.244 99.4434H202.124V68.7104C202.124 68.4162 202.27 68.269 202.564 68.269H215.1C215.466 68.269 215.65 68.4162 215.65 68.7104L215.87 146.343C215.87 146.711 215.686 146.895 215.32 146.895H202.673C202.307 146.895 202.124 146.711 202.124 146.343V113.127H185.244V146.343C185.244 146.711 185.097 146.895 184.804 146.895Z" fill="#0047FF"/>
<path d="M259.639 146.895H223.24C222.946 146.895 222.8 146.711 222.8 146.343L222.91 68.7104C222.91 68.4162 223.056 68.269 223.35 68.269H259.529C259.822 68.269 259.969 68.453 259.969 68.8208V81.4561C259.969 81.7503 259.822 81.8975 259.529 81.8975H236.436V99.5537H259.529C259.822 99.5537 259.969 99.7008 259.969 99.9951L260.079 112.796C260.079 113.09 259.932 113.237 259.639 113.237H236.436V132.99H259.639C259.932 132.99 260.079 133.174 260.079 133.542V146.453C260.079 146.747 259.932 146.895 259.639 146.895Z" fill="#0047FF"/>
<path d="M315.561 146.784L295.382 146.895C295.016 146.895 294.833 146.711 294.833 146.343L295.052 68.7104C295.052 68.4162 295.199 68.269 295.492 68.269L316.551 68.1587C320.73 68.0483 324.505 69.0047 327.878 71.0278C331.287 73.0509 333.999 75.7913 336.015 79.249C338.068 82.6699 339.094 86.4587 339.094 90.6152V123.059C339.094 127.399 338.05 131.372 335.96 134.977C333.834 138.545 331.012 141.395 327.493 143.529C323.974 145.625 319.997 146.711 315.561 146.784ZM316.551 81.6768L308.688 81.7871L308.578 132.99H315.561C318.347 132.99 320.693 132.015 322.599 130.066C324.505 128.116 325.458 125.781 325.458 123.059V90.5049C325.458 88.1139 324.579 86.0356 322.819 84.27C321.06 82.4676 318.97 81.6032 316.551 81.6768Z" fill="#0047FF"/>
<path d="M359.001 146.895H346.244C345.878 146.895 345.695 146.711 345.695 146.343L345.804 68.7104C345.804 68.4162 345.951 68.269 346.244 68.269H358.891C359.184 68.269 359.33 68.4162 359.33 68.7104L359.44 146.343C359.44 146.711 359.294 146.895 359.001 146.895Z" fill="#0047FF"/>
<path d="M363.291 146.343L377.257 68.7104C377.331 68.4162 377.514 68.269 377.807 68.269H394.137C394.43 68.269 394.614 68.4162 394.687 68.7104L408.103 146.343C408.14 146.711 407.993 146.895 407.663 146.895H395.182C394.815 146.895 394.614 146.711 394.577 146.343L393.367 138.066H378.027L376.817 146.343C376.781 146.711 376.597 146.895 376.268 146.895H363.731C363.438 146.895 363.291 146.711 363.291 146.343ZM386.495 94.2568L385.835 90.0635L385.34 94.2568L380.281 125.983H391.113L386.495 94.2568Z" fill="#0047FF"/>
<path d="M433.508 147.998C429.439 147.998 425.773 146.986 422.511 144.963C419.212 142.94 416.554 140.218 414.538 136.797C412.559 133.376 411.569 129.551 411.569 125.321V89.5117C411.569 85.3919 412.577 81.64 414.593 78.2559C416.573 74.835 419.23 72.113 422.566 70.0898C425.902 68.0299 429.549 67 433.508 67C437.65 67 441.389 67.9932 444.724 69.9795C448.06 72.0026 450.699 74.7062 452.642 78.0903C454.621 81.4744 455.611 85.2816 455.611 89.5117V94.6982C455.611 94.9925 455.428 95.1396 455.061 95.1396H442.415C442.122 95.1396 441.975 94.9925 441.975 94.6982V90.3945C441.975 87.5254 441.169 85.1528 439.556 83.2769C437.943 81.4009 435.927 80.4629 433.508 80.4629C431.345 80.4629 429.421 81.3641 427.734 83.1665C426.048 84.9689 425.205 87.084 425.205 89.5117V125.321C425.205 127.785 426.03 129.919 427.679 131.721C429.329 133.487 431.272 134.37 433.508 134.37C435.927 134.37 437.943 133.505 439.556 131.776C441.169 130.011 441.975 127.859 441.975 125.321V119.748H434.112C433.709 119.748 433.508 119.564 433.508 119.196V106.561C433.508 106.193 433.709 106.009 434.112 106.009H455.171C455.464 106.009 455.611 106.193 455.611 106.561V125.321C455.611 129.551 454.621 133.376 452.642 136.797C450.626 140.218 447.968 142.94 444.669 144.963C441.37 146.986 437.65 147.998 433.508 147.998Z" fill="#0047FF"/>
<path d="M482.17 147.998C478.175 147.998 474.491 146.968 471.119 144.908C467.783 142.848 465.089 140.108 463.036 136.687C461.02 133.229 460.012 129.441 460.012 125.321L460.122 89.5117C460.122 85.3184 461.13 81.548 463.146 78.2007C465.125 74.8166 467.801 72.113 471.174 70.0898C474.546 68.0299 478.211 67 482.17 67C486.276 67 489.96 68.0116 493.222 70.0347C496.521 72.0578 499.16 74.7798 501.14 78.2007C503.156 81.5848 504.164 85.3551 504.164 89.5117L504.274 125.321C504.274 129.441 503.284 133.211 501.305 136.632C499.289 140.09 496.613 142.848 493.277 144.908C489.941 146.968 486.239 147.998 482.17 147.998ZM482.17 134.37C484.443 134.37 486.422 133.45 488.109 131.611C489.795 129.735 490.638 127.638 490.638 125.321L490.528 89.5117C490.528 87.0104 489.74 84.8953 488.164 83.1665C486.587 81.4377 484.59 80.5732 482.17 80.5732C479.861 80.5732 477.882 81.4193 476.232 83.1113C474.583 84.8034 473.758 86.9368 473.758 89.5117V125.321C473.758 127.785 474.583 129.919 476.232 131.721C477.882 133.487 479.861 134.37 482.17 134.37Z" fill="#0047FF"/>
<path d="M522.805 146.895H511.534C510.947 146.895 510.654 146.637 510.654 146.122L510.544 69.1519C510.544 68.5633 510.837 68.269 511.424 68.269H521.596L540.62 112.796L540.07 69.1519C540.07 68.5633 540.4 68.269 541.06 68.269H552.222C552.661 68.269 552.881 68.5633 552.881 69.1519L552.991 146.232C552.991 146.674 552.808 146.895 552.441 146.895H542.544L523.025 105.292L523.85 146.012C523.85 146.6 523.502 146.895 522.805 146.895Z" fill="#0047FF"/>
<path d="M556.732 146.343L570.698 68.7104C570.772 68.4162 570.955 68.269 571.248 68.269H587.578C587.871 68.269 588.055 68.4162 588.128 68.7104L601.544 146.343C601.581 146.711 601.434 146.895 601.104 146.895H588.623C588.256 146.895 588.055 146.711 588.018 146.343L586.808 138.066H571.468L570.258 146.343C570.222 146.711 570.038 146.895 569.709 146.895H557.172C556.879 146.895 556.732 146.711 556.732 146.343ZM579.935 94.2568L579.276 90.0635L578.781 94.2568L573.722 125.983H584.554L579.935 94.2568Z" fill="#0047FF"/>
<path d="M643.169 146.895H606.77C606.476 146.895 606.33 146.711 606.33 146.343L606.44 68.8208C606.44 68.453 606.623 68.269 606.99 68.269H619.526C619.892 68.269 620.076 68.453 620.076 68.8208L619.966 132.99H643.169C643.535 132.99 643.719 133.174 643.719 133.542V146.343C643.719 146.711 643.535 146.895 643.169 146.895Z" fill="#0047FF"/>
<path d="M667.969 147.998C663.973 147.998 660.289 146.968 656.917 144.908C653.581 142.848 650.905 140.108 648.889 136.687C646.91 133.229 645.92 129.441 645.92 125.321V120.134C645.92 119.73 646.103 119.527 646.47 119.527H659.116C659.409 119.527 659.556 119.73 659.556 120.134V125.321C659.556 127.785 660.381 129.919 662.03 131.721C663.68 133.487 665.659 134.37 667.969 134.37C670.314 134.37 672.312 133.468 673.962 131.666C675.611 129.827 676.436 127.712 676.436 125.321C676.436 122.562 674.64 120.153 671.048 118.093C670.461 117.725 669.691 117.284 668.738 116.769C667.822 116.217 666.722 115.591 665.439 114.893C664.156 114.194 662.91 113.513 661.7 112.851C660.491 112.152 659.318 111.49 658.181 110.865C654.076 108.437 651.015 105.402 648.999 101.761C647.02 98.0824 646.03 93.9626 646.03 89.4014C646.03 85.208 647.056 81.4193 649.109 78.0352C651.162 74.6878 653.838 72.0394 657.137 70.0898C660.472 68.1035 664.083 67.1104 667.969 67.1104C671.964 67.1104 675.63 68.1035 678.965 70.0898C682.301 72.113 684.958 74.7982 686.938 78.1455C688.954 81.4928 689.962 85.2448 689.962 89.4014V98.6709C689.962 98.9652 689.815 99.1123 689.522 99.1123H676.876C676.583 99.1123 676.436 98.9652 676.436 98.6709L676.326 89.4014C676.326 86.7529 675.501 84.6011 673.852 82.9458C672.202 81.2905 670.241 80.4629 667.969 80.4629C665.659 80.4629 663.68 81.3457 662.03 83.1113C660.381 84.877 659.556 86.9736 659.556 89.4014C659.556 91.8659 660.069 93.9258 661.096 95.5811C662.159 97.2363 664.083 98.818 666.869 100.326C667.162 100.473 667.84 100.841 668.903 101.43C669.966 102.018 671.139 102.68 672.422 103.416C673.742 104.115 674.933 104.759 675.996 105.347C677.059 105.899 677.701 106.23 677.921 106.34C681.659 108.437 684.61 111.012 686.773 114.065C688.972 117.118 690.072 120.87 690.072 125.321C690.072 129.625 689.082 133.487 687.103 136.908C685.087 140.329 682.411 143.032 679.075 145.019C675.74 147.005 672.037 147.998 667.969 147.998Z" fill="#0047FF"/>
</g>
<g style="mix-blend-mode:multiply">
<path d="M161.788 149.895H149.086C148.756 149.895 148.591 149.711 148.591 149.343V84.8975H133.966C133.599 84.8975 133.416 84.7135 133.416 84.3457L133.526 71.7104C133.526 71.4162 133.673 71.269 133.966 71.269H176.743C177.146 71.269 177.348 71.4162 177.348 71.7104V84.3457C177.348 84.7135 177.201 84.8975 176.908 84.8975H162.117L162.227 149.343C162.227 149.711 162.081 149.895 161.788 149.895Z" fill="#52FF00"/>
<path d="M193.79 149.895H181.034C180.741 149.895 180.594 149.711 180.594 149.343L180.704 71.7104C180.704 71.4162 180.887 71.269 181.254 71.269H193.79C194.157 71.269 194.34 71.4162 194.34 71.7104L194.23 102.443H211.11V71.7104C211.11 71.4162 211.257 71.269 211.55 71.269H224.086C224.453 71.269 224.636 71.4162 224.636 71.7104L224.856 149.343C224.856 149.711 224.673 149.895 224.306 149.895H211.66C211.293 149.895 211.11 149.711 211.11 149.343V116.127H194.23V149.343C194.23 149.711 194.083 149.895 193.79 149.895Z" fill="#52FF00"/>
<path d="M268.625 149.895H232.226C231.933 149.895 231.786 149.711 231.786 149.343L231.896 71.7104C231.896 71.4162 232.043 71.269 232.336 71.269H268.515C268.808 71.269 268.955 71.453 268.955 71.8208V84.4561C268.955 84.7503 268.808 84.8975 268.515 84.8975H245.422V102.554H268.515C268.808 102.554 268.955 102.701 268.955 102.995L269.065 115.796C269.065 116.09 268.918 116.237 268.625 116.237H245.422V135.99H268.625C268.918 135.99 269.065 136.174 269.065 136.542V149.453C269.065 149.747 268.918 149.895 268.625 149.895Z" fill="#52FF00"/>
<path d="M324.548 149.784L304.369 149.895C304.002 149.895 303.819 149.711 303.819 149.343L304.039 71.7104C304.039 71.4162 304.185 71.269 304.479 71.269L325.537 71.1587C329.716 71.0483 333.492 72.0047 336.864 74.0278C340.273 76.0509 342.985 78.7913 345.002 82.249C347.054 85.6699 348.081 89.4587 348.081 93.6152V126.059C348.081 130.399 347.036 134.372 344.947 137.977C342.821 141.545 339.998 144.395 336.479 146.529C332.96 148.625 328.983 149.711 324.548 149.784ZM325.537 84.6768L317.675 84.7871L317.565 135.99H324.548C327.333 135.99 329.679 135.015 331.586 133.066C333.492 131.116 334.445 128.781 334.445 126.059V93.5049C334.445 91.1139 333.565 89.0356 331.805 87.27C330.046 85.4676 327.957 84.6032 325.537 84.6768Z" fill="#52FF00"/>
<path d="M367.987 149.895H355.231C354.864 149.895 354.681 149.711 354.681 149.343L354.791 71.7104C354.791 71.4162 354.937 71.269 355.231 71.269H367.877C368.17 71.269 368.317 71.4162 368.317 71.7104L368.427 149.343C368.427 149.711 368.28 149.895 367.987 149.895Z" fill="#52FF00"/>
<path d="M372.278 149.343L386.244 71.7104C386.317 71.4162 386.5 71.269 386.793 71.269H403.124C403.417 71.269 403.6 71.4162 403.673 71.7104L417.089 149.343C417.126 149.711 416.979 149.895 416.65 149.895H404.168C403.802 149.895 403.6 149.711 403.563 149.343L402.354 141.066H387.013L385.804 149.343C385.767 149.711 385.584 149.895 385.254 149.895H372.718C372.424 149.895 372.278 149.711 372.278 149.343ZM395.481 97.2568L394.821 93.0635L394.326 97.2568L389.268 128.983H400.099L395.481 97.2568Z" fill="#52FF00"/>
<path d="M442.494 150.998C438.425 150.998 434.76 149.986 431.497 147.963C428.198 145.94 425.541 143.218 423.525 139.797C421.545 136.376 420.556 132.551 420.556 128.321V92.5117C420.556 88.3919 421.564 84.64 423.58 81.2559C425.559 77.835 428.217 75.113 431.552 73.0898C434.888 71.0299 438.535 70 442.494 70C446.636 70 450.375 70.9932 453.711 72.9795C457.046 75.0026 459.685 77.7062 461.628 81.0903C463.608 84.4744 464.597 88.2816 464.597 92.5117V97.6982C464.597 97.9925 464.414 98.1396 464.048 98.1396H451.401C451.108 98.1396 450.961 97.9925 450.961 97.6982V93.3945C450.961 90.5254 450.155 88.1528 448.542 86.2769C446.929 84.4009 444.913 83.4629 442.494 83.4629C440.331 83.4629 438.407 84.3641 436.721 86.1665C435.035 87.9689 434.191 90.084 434.191 92.5117V128.321C434.191 130.785 435.016 132.919 436.666 134.721C438.315 136.487 440.258 137.37 442.494 137.37C444.913 137.37 446.929 136.505 448.542 134.776C450.155 133.011 450.961 130.859 450.961 128.321V122.748H443.099C442.696 122.748 442.494 122.564 442.494 122.196V109.561C442.494 109.193 442.696 109.009 443.099 109.009H464.157C464.451 109.009 464.597 109.193 464.597 109.561V128.321C464.597 132.551 463.608 136.376 461.628 139.797C459.612 143.218 456.955 145.94 453.656 147.963C450.357 149.986 446.636 150.998 442.494 150.998Z" fill="#52FF00"/>
<path d="M491.157 150.998C487.161 150.998 483.477 149.968 480.105 147.908C476.769 145.848 474.075 143.108 472.022 139.687C470.006 136.229 468.998 132.441 468.998 128.321L469.108 92.5117C469.108 88.3184 470.116 84.548 472.132 81.2007C474.112 77.8166 476.788 75.113 480.16 73.0898C483.532 71.0299 487.198 70 491.157 70C495.262 70 498.946 71.0116 502.208 73.0347C505.507 75.0578 508.147 77.7798 510.126 81.2007C512.142 84.5848 513.15 88.3551 513.15 92.5117L513.26 128.321C513.26 132.441 512.27 136.211 510.291 139.632C508.275 143.09 505.599 145.848 502.263 147.908C498.928 149.968 495.225 150.998 491.157 150.998ZM491.157 137.37C493.429 137.37 495.409 136.45 497.095 134.611C498.781 132.735 499.624 130.638 499.624 128.321L499.514 92.5117C499.514 90.0104 498.726 87.8953 497.15 86.1665C495.574 84.4377 493.576 83.5732 491.157 83.5732C488.847 83.5732 486.868 84.4193 485.218 86.1113C483.569 87.8034 482.744 89.9368 482.744 92.5117V128.321C482.744 130.785 483.569 132.919 485.218 134.721C486.868 136.487 488.847 137.37 491.157 137.37Z" fill="#52FF00"/>
<path d="M531.792 149.895H520.52C519.934 149.895 519.64 149.637 519.64 149.122L519.53 72.1519C519.53 71.5633 519.824 71.269 520.41 71.269H530.582L549.606 115.796L549.057 72.1519C549.057 71.5633 549.386 71.269 550.046 71.269H561.208C561.648 71.269 561.868 71.5633 561.868 72.1519L561.978 149.232C561.978 149.674 561.794 149.895 561.428 149.895H551.531L532.012 108.292L532.836 149.012C532.836 149.6 532.488 149.895 531.792 149.895Z" fill="#52FF00"/>
<path d="M565.719 149.343L579.685 71.7104C579.758 71.4162 579.941 71.269 580.234 71.269H596.564C596.858 71.269 597.041 71.4162 597.114 71.7104L610.53 149.343C610.567 149.711 610.42 149.895 610.09 149.895H597.609C597.243 149.895 597.041 149.711 597.004 149.343L595.795 141.066H580.454L579.245 149.343C579.208 149.711 579.025 149.895 578.695 149.895H566.159C565.865 149.895 565.719 149.711 565.719 149.343ZM588.922 97.2568L588.262 93.0635L587.767 97.2568L582.709 128.983H593.54L588.922 97.2568Z" fill="#52FF00"/>
<path d="M652.155 149.895H615.756C615.463 149.895 615.316 149.711 615.316 149.343L615.426 71.8208C615.426 71.453 615.609 71.269 615.976 71.269H628.512C628.879 71.269 629.062 71.453 629.062 71.8208L628.952 135.99H652.155C652.522 135.99 652.705 136.174 652.705 136.542V149.343C652.705 149.711 652.522 149.895 652.155 149.895Z" fill="#52FF00"/>
<path d="M676.955 150.998C672.959 150.998 669.275 149.968 665.903 147.908C662.567 145.848 659.892 143.108 657.876 139.687C655.896 136.229 654.906 132.441 654.906 128.321V123.134C654.906 122.73 655.09 122.527 655.456 122.527H668.102C668.396 122.527 668.542 122.73 668.542 123.134V128.321C668.542 130.785 669.367 132.919 671.017 134.721C672.666 136.487 674.646 137.37 676.955 137.37C679.301 137.37 681.299 136.468 682.948 134.666C684.598 132.827 685.422 130.712 685.422 128.321C685.422 125.562 683.626 123.153 680.034 121.093C679.447 120.725 678.678 120.284 677.725 119.769C676.808 119.217 675.709 118.591 674.426 117.893C673.143 117.194 671.896 116.513 670.687 115.851C669.477 115.152 668.304 114.49 667.168 113.865C663.062 111.437 660.002 108.402 657.986 104.761C656.006 101.082 655.016 96.9626 655.016 92.4014C655.016 88.208 656.043 84.4193 658.095 81.0352C660.148 77.6878 662.824 75.0394 666.123 73.0898C669.459 71.1035 673.069 70.1104 676.955 70.1104C680.95 70.1104 684.616 71.1035 687.952 73.0898C691.287 75.113 693.945 77.7982 695.924 81.1455C697.94 84.4928 698.948 88.2448 698.948 92.4014V101.671C698.948 101.965 698.802 102.112 698.508 102.112H685.862C685.569 102.112 685.422 101.965 685.422 101.671L685.312 92.4014C685.312 89.7529 684.488 87.6011 682.838 85.9458C681.189 84.2905 679.228 83.4629 676.955 83.4629C674.646 83.4629 672.666 84.3457 671.017 86.1113C669.367 87.877 668.542 89.9736 668.542 92.4014C668.542 94.8659 669.056 96.9258 670.082 98.5811C671.145 100.236 673.069 101.818 675.855 103.326C676.148 103.473 676.827 103.841 677.89 104.43C678.953 105.018 680.126 105.68 681.409 106.416C682.728 107.115 683.919 107.759 684.982 108.347C686.045 108.899 686.687 109.23 686.907 109.34C690.646 111.437 693.597 114.012 695.759 117.065C697.959 120.118 699.058 123.87 699.058 128.321C699.058 132.625 698.069 136.487 696.089 139.908C694.073 143.329 691.397 146.032 688.062 148.019C684.726 150.005 681.024 150.998 676.955 150.998Z" fill="#52FF00"/>
</g>
</svg>
