<svg width="120" height="80" viewBox="0 0 120 80" fill="none" xmlns="http://www.w3.org/2000/svg">
<path fill-rule="evenodd" clip-rule="evenodd" d="M4.42331 26.8097C6.86623 26.8097 8.84661 28.7901 8.84661 31.233H4.42331H0C0 28.7901 1.98038 26.8097 4.42331 26.8097ZM4.42331 31.233C0 31.233 0 31.233 0 31.233V54.6178C0 62.7146 6.40836 68.8721 14.0941 72.7419C22.0357 76.7404 32.6978 79.0852 44.2331 79.0852C55.7683 79.0852 66.4304 76.7404 74.372 72.7419C80.7778 69.5166 86.2963 64.702 87.9566 58.5C88.2884 57.2608 86.5 57.5 86.5 57.5L84 56C84 56 79.6195 52.1749 79.6195 54.6178C79.6195 57.591 77.1162 61.4555 70.3936 64.8403C63.9269 68.0962 54.6841 70.2385 44.2331 70.2385C33.782 70.2385 24.5392 68.0962 18.0725 64.8403C11.35 61.4555 8.84661 57.591 8.84661 54.6178V31.233C8.84661 31.233 8.84661 31.233 4.42331 31.233Z" fill="black"/>
<path fill-rule="evenodd" clip-rule="evenodd" d="M18.0774 21.7685C11.3598 25.1613 8.84661 29.0398 8.84661 32.0373C8.84661 35.0347 11.3598 38.9133 18.0774 42.306C24.5429 45.5714 33.7839 47.7199 44.2331 47.7199C52.2761 47.7199 59.6034 46.4469 65.5 44.3715C67.264 43.7506 59 44 59 44L54.5 40L48 28L44.2331 16.3546C33.7839 16.3546 24.5429 18.5031 18.0774 21.7685ZM14.0892 13.8719C22.032 9.86039 33.9628 7.5 45.5 7.5L51 28L62 40.5L74.3769 50.2026C66.4341 54.2142 55.7702 56.5665 44.2331 56.5665C32.6959 56.5665 22.032 54.2142 14.0892 50.2026C6.39849 46.3184 0 40.144 0 32.0373C0 23.9305 6.39849 17.7561 14.0892 13.8719Z" fill="black"/>
<path fill-rule="evenodd" clip-rule="evenodd" d="M65.045 9.81326C57.6023 8.74228 53.2715 10.4798 51.5067 12.983C49.742 15.4862 49.5604 20.149 53.0696 26.7993C56.4522 33.2097 62.7491 40.2977 71.2801 46.3122C79.811 52.3266 88.6026 55.8762 95.7769 56.9085C103.22 57.9795 107.55 56.2419 109.315 53.7388C111.08 51.2356 111.261 46.5727 107.752 39.9225C104.37 33.5121 98.0727 26.424 89.5418 20.4096C81.0108 14.3952 72.2192 10.8456 65.045 9.81326ZM66.305 1.05684C75.1276 2.3264 85.2103 6.53166 94.6393 13.1792C104.068 19.8268 111.417 27.9106 115.576 35.7939C119.61 43.4374 121.231 52.19 116.545 58.8363C111.86 65.4825 103.071 66.8959 94.5168 65.6649C85.6942 64.3954 75.6116 60.1901 66.1826 53.5425C56.7536 46.895 49.4053 38.8112 45.2455 30.9279C41.2121 23.2844 39.5907 14.5317 44.2764 7.8855C48.9621 1.23926 57.7508 -0.174104 66.305 1.05684Z" fill="black"/>
</svg>
