<svg width="119" height="105" viewBox="0 0 119 105" fill="none" xmlns="http://www.w3.org/2000/svg">
<path fill-rule="evenodd" clip-rule="evenodd" d="M73.9938 2.59987C74.7554 0.561858 77.0062 -0.493737 79.0601 0.223875L104.819 9.22388C106.042 9.65105 106.982 10.6438 107.342 11.8878L118.342 49.8878C118.692 51.0958 118.453 52.3979 117.698 53.4033C116.942 54.4086 115.758 55 114.5 55H92.5V47H109.178L100.232 16.0953L79.8109 8.96043C75.6691 16.1521 67.9044 21 59 21V13C65.8601 13 71.7215 8.68077 73.9938 2.59987Z" fill="black"/>
<path fill-rule="evenodd" clip-rule="evenodd" d="M44.5062 2.59987C43.7446 0.561858 41.4938 -0.493737 39.4399 0.223875L13.6807 9.22388C12.458 9.65105 11.5179 10.6438 11.1577 11.8878L0.157742 49.8878C-0.191944 51.0958 0.0468483 52.3979 0.802429 53.4033C1.55801 54.4086 2.74239 55 4 55H26V47H9.32212L18.2682 16.0953L38.6891 8.96043C42.8309 16.1521 50.5956 21 59.5 21V13C52.6399 13 46.7785 8.68077 44.5062 2.59987Z" fill="black"/>
<path fill-rule="evenodd" clip-rule="evenodd" d="M26 35C28.2091 35 30 36.7909 30 39V97H88V39C88 36.7909 89.7909 35 92 35C94.2091 35 96 36.7909 96 39V101C96 103.209 94.2091 105 92 105H26C23.7909 105 22 103.209 22 101V39C22 36.7909 23.7909 35 26 35Z" fill="black"/>
</svg>
