<svg width="101" height="100" viewBox="0 0 101 100" fill="none" xmlns="http://www.w3.org/2000/svg">
<path fill-rule="evenodd" clip-rule="evenodd" d="M12.4709 45.7828C10.6035 50.369 9.65085 54.1614 9.65085 56.7131C9.65085 68.0289 18.83 77.2068 30.1589 77.2068C32.3721 77.2068 28.5 72 28.5 72L27.489 61.5L32 43.5L40.7951 32.0655C40.7951 32.0655 35.2396 23.6868 32.8288 20.9263C31.7682 19.7119 30.8666 18.8134 30.1589 18.2146C29.4512 18.8134 28.5496 19.7119 27.489 20.9263C25.0783 23.6868 22.2423 27.6214 19.5227 32.0655C16.8088 36.5002 14.2926 41.3088 12.4709 45.7828ZM26.8232 8.87906C27.6274 8.48236 28.7892 8.04239 30.1589 8.04239C31.5286 8.04239 32.6904 8.48236 33.4946 8.87906C34.3407 9.29642 35.1264 9.83421 35.8273 10.3855C37.2276 11.4869 38.6779 12.9522 40.0979 14.5782C42.1472 16.9248 44.3451 19.8511 46.5 23.0758C47.353 24.3523 47.5 26.5 47.5 26.5C47.5 26.5 32.9405 37.0854 35 42.1433C37.0137 47.089 32 60.5601 32 65C32 81.651 46.8126 86.8577 30.1589 86.8577C13.5052 86.8577 0 73.3641 0 56.7131C0 52.2732 1.51887 47.089 3.53261 42.1433C5.59207 37.0854 8.36656 31.8066 11.2909 27.0279C14.2095 22.2586 17.3594 17.8537 20.22 14.5782C21.6399 12.9522 23.0902 11.4869 24.4905 10.3855C25.1914 9.83421 25.9772 9.29642 26.8232 8.87906Z" fill="black"/>
<path fill-rule="evenodd" clip-rule="evenodd" d="M38.3606 47.1404C35.9079 53.1675 34.5822 58.3171 34.5822 61.9263C34.5822 77.4722 47.1847 90.0746 62.7306 90.0746C78.2764 90.0746 90.8789 77.4722 90.8789 61.9263C90.8789 58.3171 89.5532 53.1675 87.1005 47.1404C84.6935 41.2255 81.3794 34.892 77.8152 29.0645C74.2453 23.2277 70.5066 18.0325 67.3009 14.3596C65.6876 12.5113 64.3102 11.1653 63.2413 10.324C63.0483 10.1722 62.8782 10.0469 62.7306 9.94447C62.5829 10.0469 62.4128 10.1722 62.2198 10.324C61.1509 11.1653 59.7735 12.5113 58.1603 14.3596C54.9545 18.0325 51.2158 23.2277 47.6459 29.0645C44.0817 34.892 40.7676 41.2255 38.3606 47.1404ZM63.3919 9.5543C63.3919 9.5543 63.383 9.55852 63.366 9.56436C63.3835 9.55679 63.3919 9.5543 63.3919 9.5543ZM62.0951 9.56436C62.0781 9.55852 62.0692 9.5543 62.0692 9.5543C62.0692 9.5543 62.0776 9.5568 62.0951 9.56436ZM59.0317 0.939576C59.9717 0.475595 61.2554 0 62.7306 0C64.2057 0 65.4894 0.475595 66.4294 0.939576C67.4113 1.42424 68.3472 2.06122 69.2098 2.74007C70.9337 4.09676 72.7544 5.93129 74.5717 8.01347C78.2271 12.2015 82.2795 17.867 86.0483 24.029C89.8227 30.2004 93.3949 37.004 96.0395 43.5027C98.6385 49.8893 100.53 56.43 100.53 61.9263C100.53 82.8022 83.6065 99.7254 62.7306 99.7254C41.8547 99.7254 24.9314 82.8022 24.9314 61.9263C24.9314 56.43 26.8226 49.8893 29.4216 43.5027C32.0662 37.004 35.6384 30.2004 39.4129 24.029C43.1816 17.867 47.234 12.2015 50.8894 8.01347C52.7067 5.93129 54.5275 4.09676 56.2513 2.74007C57.1139 2.06122 58.0498 1.42424 59.0317 0.939576Z" fill="black"/>
</svg>
