<svg width="324" height="271" viewBox="0 0 324 271" fill="none" xmlns="http://www.w3.org/2000/svg">
<g style="mix-blend-mode:color-burn">
<path fill-rule="evenodd" clip-rule="evenodd" d="M149.757 57.4161C156.001 51.8376 165.575 51.8376 171.818 57.4161L228.191 107.784C239.187 117.609 232.067 135.5 217.16 135.5H104.415C89.5084 135.5 82.3883 117.609 93.3847 107.784L149.757 57.4161ZM160.788 77.148L119.907 113.674H201.668L160.788 77.148Z" fill="#FF595E"/>
<path fill-rule="evenodd" clip-rule="evenodd" d="M149.757 120.327C156.001 114.748 165.575 114.748 171.818 120.327L228.191 170.695C239.187 180.52 232.067 198.411 217.16 198.411H104.415C89.5084 198.411 82.3883 180.52 93.3847 170.695L149.757 120.327ZM160.788 140.059L119.907 176.585H201.668L160.788 140.059Z" fill="#FF595E"/>
<path fill-rule="evenodd" clip-rule="evenodd" d="M273.472 135.5C273.472 74.6098 223.564 25.2485 162 25.2484C100.436 25.2484 50.528 74.6097 50.528 135.5C50.5279 196.39 100.436 245.752 162 245.752C223.564 245.752 273.472 196.39 273.472 135.5ZM162 0C237.663 3.30033e-06 299 60.6654 299 135.5C299 210.335 237.663 271 162 271C86.337 271 25 210.335 25 135.5C25 60.6654 86.337 -3.30033e-06 162 0Z" fill="#FF595E"/>
</g>
<g style="mix-blend-mode:color-burn">
<path fill-rule="evenodd" clip-rule="evenodd" d="M175.302 57.4161C181.523 51.8376 191.062 51.8376 197.282 57.4161L253.449 107.784C264.405 117.609 257.311 135.5 242.459 135.5H130.125C115.273 135.5 108.179 117.609 119.135 107.784L175.302 57.4161ZM186.292 77.148L145.561 113.674H227.023L186.292 77.148Z" fill="#8AC926"/>
<path fill-rule="evenodd" clip-rule="evenodd" d="M175.302 120.327C181.523 114.748 191.062 114.748 197.282 120.327L253.449 170.695C264.405 180.52 257.311 198.411 242.459 198.411H130.125C115.273 198.411 108.179 180.52 119.135 170.695L175.302 120.327ZM186.292 140.059L145.561 176.585H227.023L186.292 140.059Z" fill="#8AC926"/>
<path fill-rule="evenodd" clip-rule="evenodd" d="M298.565 135.5C298.565 74.6098 248.84 25.2485 187.5 25.2484C126.16 25.2484 76.4348 74.6097 76.4348 135.5C76.4348 196.39 126.16 245.752 187.5 245.752C248.84 245.752 298.565 196.39 298.565 135.5ZM187.5 0C262.887 3.30033e-06 324 60.6654 324 135.5C324 210.335 262.887 271 187.5 271C112.113 271 51 210.335 51 135.5C51 60.6654 112.113 -3.30033e-06 187.5 0Z" fill="#8AC926"/>
</g>
<g style="mix-blend-mode:color-burn">
<path fill-rule="evenodd" clip-rule="evenodd" d="M124.757 57.4161C131.001 51.8376 140.575 51.8376 146.818 57.4161L203.191 107.784C214.187 117.609 207.067 135.5 192.16 135.5H79.4151C64.5084 135.5 57.3883 117.609 68.3847 107.784L124.757 57.4161ZM135.788 77.148L94.9075 113.674H176.668L135.788 77.148Z" fill="#1982C4"/>
<path fill-rule="evenodd" clip-rule="evenodd" d="M124.757 120.327C131.001 114.748 140.575 114.748 146.818 120.327L203.191 170.695C214.187 180.52 207.067 198.411 192.16 198.411H79.4151C64.5084 198.411 57.3883 180.52 68.3847 170.695L124.757 120.327ZM135.788 140.059L94.9075 176.585H176.668L135.788 140.059Z" fill="#1982C4"/>
<path fill-rule="evenodd" clip-rule="evenodd" d="M248.472 135.5C248.472 74.6098 198.564 25.2485 137 25.2484C75.4357 25.2484 25.528 74.6097 25.528 135.5C25.5279 196.39 75.4357 245.752 137 245.752C198.564 245.752 248.472 196.39 248.472 135.5ZM137 0C212.663 3.30033e-06 274 60.6654 274 135.5C274 210.335 212.663 271 137 271C61.337 271 -3.27807e-06 210.335 0 135.5C3.27807e-06 60.6654 61.337 -3.30033e-06 137 0Z" fill="#1982C4"/>
</g>
</svg>
