<svg width="500" height="500" viewBox="0 0 500 500" fill="none" xmlns="http://www.w3.org/2000/svg">
<path d="M324.934 381H174.706C144.157 381 119 356.201 119 325.293V175.065C119 144.157 144.157 119 174.706 119H324.934C355.842 119 381 144.157 381 175.065V325.293C381 356.201 355.842 381 324.934 381ZM174.706 151.345C161.768 151.345 150.986 162.127 150.986 175.065V325.293C150.986 338.232 161.768 349.014 174.706 349.014H324.934C337.872 349.014 348.654 338.232 348.654 325.293V175.065C348.654 162.127 337.872 151.345 324.934 151.345H174.706Z" fill="white"/>
<path d="M249.82 293.307C218.193 293.307 192.316 267.431 192.316 235.804C192.316 227.897 198.786 221.428 206.692 221.428C214.599 221.428 221.068 227.897 221.068 235.804C221.068 251.617 234.006 264.555 249.82 264.555C265.633 264.555 278.572 251.617 278.572 235.804C278.572 227.897 285.041 221.428 292.948 221.428C300.854 221.428 307.323 227.897 307.323 235.804C307.323 267.431 281.806 293.307 249.82 293.307Z" fill="white"/>
</svg>
