<svg width="448" height="108" viewBox="0 0 448 108" fill="none" xmlns="http://www.w3.org/2000/svg">
<path d="M25.24 91.82C21.468 91.82 18.0513 91.3827 14.99 90.508C11.9833 89.5787 9.30468 88.2667 6.95401 86.572C4.60335 84.8227 2.49868 82.7727 0.640015 80.422L9.08601 70.828C11.8193 74.4907 14.5527 76.9507 17.286 78.208C20.074 79.4653 22.944 80.094 25.896 80.094C27.372 80.094 28.7113 79.9027 29.914 79.52C31.1167 79.1373 32.046 78.5907 32.702 77.88C33.358 77.1147 33.686 76.1853 33.686 75.092C33.686 74.272 33.4674 73.534 33.03 72.878C32.6474 72.222 32.1007 71.648 31.39 71.156C30.6793 70.664 29.832 70.2267 28.848 69.844C27.864 69.4067 26.8253 69.0513 25.732 68.778C24.6387 68.45 23.518 68.1767 22.37 67.958C19.1994 67.2473 16.4387 66.3727 14.088 65.334C11.7373 64.2953 9.76935 63.038 8.18401 61.562C6.65335 60.0313 5.50535 58.3093 4.74002 56.396C3.97468 54.428 3.59201 52.2413 3.59201 49.836C3.59201 47.2667 4.16602 44.916 5.31402 42.784C6.51668 40.5973 8.10202 38.7387 10.07 37.208C12.0927 35.6227 14.416 34.42 17.04 33.6C19.664 32.7253 22.3973 32.288 25.24 32.288C29.012 32.288 32.2373 32.698 34.916 33.518C37.6493 34.2833 39.9727 35.404 41.886 36.88C43.854 38.356 45.5214 40.1327 46.888 42.21L38.278 50.492C37.13 49.0707 35.8727 47.8953 34.506 46.966C33.194 46.0367 31.7727 45.326 30.242 44.834C28.766 44.342 27.2353 44.096 25.65 44.096C24.01 44.096 22.5887 44.3147 21.386 44.752C20.238 45.1347 19.336 45.7087 18.68 46.474C18.024 47.1847 17.696 48.0593 17.696 49.098C17.696 50.0273 17.9693 50.82 18.516 51.476C19.0627 52.132 19.8007 52.7333 20.73 53.28C21.6593 53.772 22.7253 54.2093 23.928 54.592C25.1307 54.92 26.388 55.1933 27.7 55.412C30.7067 56.0133 33.4127 56.806 35.818 57.79C38.278 58.774 40.3827 59.9767 42.132 61.398C43.936 62.8193 45.3027 64.514 46.232 66.482C47.216 68.3953 47.708 70.6367 47.708 73.206C47.708 77.1967 46.724 80.586 44.756 83.374C42.8427 86.1073 40.1913 88.212 36.802 89.688C33.4673 91.1093 29.6133 91.82 25.24 91.82Z" fill="black"/>
<path d="M36.6207 71.73L61.1387 57.052L65.4027 64.268L40.9667 79.028L36.6207 71.73Z" fill="black"/>
<path d="M54.9067 32.452C55.1801 34.3107 55.5354 36.388 55.9727 38.684C56.4101 40.98 56.8747 43.3307 57.3667 45.736C57.9134 48.0867 58.4327 50.3553 58.9247 52.542H50.1507C49.2761 50.5193 48.4014 48.4147 47.5267 46.228C46.5974 43.9867 45.7501 41.7727 44.9847 39.586C44.2194 37.3447 43.5907 35.2673 43.0987 33.354L43.6727 32.452H54.9067Z" fill="black"/>
<path d="M71.4707 42.21C67.6987 42.21 64.5007 41.0347 61.8767 38.684C59.2527 36.3333 57.5581 33.1353 56.7927 29.09L65.1567 28.106C65.758 29.8007 66.6054 31.1673 67.6987 32.206C68.8467 33.19 70.1041 33.682 71.4707 33.682C72.8374 33.682 74.0674 33.19 75.1607 32.206C76.3087 31.1673 77.1834 29.8007 77.7847 28.106L86.1487 29.09C85.3834 33.1353 83.6887 36.3333 81.0647 38.684C78.4407 41.0347 75.2427 42.21 71.4707 42.21Z" fill="black"/>
<path d="M98.4487 46.228V91H89.1007L87.4607 85.26H86.8047C85.8754 86.7907 84.6727 88.048 83.1967 89.032C81.7754 89.9613 80.1901 90.6447 78.4407 91.082C76.6914 91.574 74.8874 91.82 73.0287 91.82C69.858 91.82 67.0701 91.246 64.6647 90.098C62.2594 88.95 60.4007 87.1733 59.0887 84.768C57.7767 82.3627 57.1207 79.2467 57.1207 75.42V46.228H69.3387V72.386C69.3387 75.5567 69.9127 77.962 71.0607 79.602C72.2087 81.242 74.0401 82.062 76.5547 82.062C79.0694 82.062 81.01 81.488 82.3767 80.34C83.798 79.192 84.7821 77.5247 85.3287 75.338C85.9301 73.1513 86.2307 70.4727 86.2307 67.302V46.228H98.4487Z" fill="black"/>
<path d="M88.2173 74.108C88.3813 71.976 88.7913 70.1447 89.4473 68.614C90.0486 67.0287 90.8413 65.744 91.8253 64.76C92.8093 63.7213 93.93 62.956 95.1873 62.464C96.39 61.972 97.702 61.726 99.1233 61.726C100.217 61.726 101.31 61.9447 102.403 62.382C103.442 62.7647 104.453 63.2567 105.437 63.858C106.476 64.4047 107.487 64.8967 108.471 65.334C109.455 65.7167 110.439 65.908 111.423 65.908C112.243 65.908 113.036 65.5527 113.801 64.842C114.567 64.1313 115.113 63.0653 115.441 61.644H121.427C121.099 65.8533 119.897 68.9693 117.819 70.992C115.742 73.0147 113.309 74.026 110.521 74.026C109.428 74.026 108.362 73.8347 107.323 73.452C106.285 73.0147 105.246 72.5227 104.207 71.976C103.169 71.3747 102.157 70.8827 101.173 70.5C100.189 70.0627 99.2053 69.844 98.2213 69.844C97.4013 69.844 96.6086 70.1993 95.8433 70.91C95.078 71.6207 94.5313 72.6867 94.2033 74.108H88.2173Z" fill="black"/>
<path d="M114.375 42.21L109.619 38.11L121.427 27.532H129.299L141.107 38.11L136.351 42.21L124.133 35.158H126.593L114.375 42.21Z" fill="black"/>
<path d="M105.109 42.21L100.763 39.75C101.365 39.3127 101.857 38.8207 102.239 38.274C102.567 37.6727 102.731 37.0713 102.731 36.47C102.731 35.7047 102.513 35.076 102.075 34.584C101.583 34.092 100.791 33.846 99.6973 33.846C99.0413 33.846 98.5493 33.9007 98.2213 34.01C97.8386 34.1193 97.5106 34.2287 97.2373 34.338V27.86C97.8386 27.6413 98.604 27.45 99.5333 27.286C100.463 27.0673 101.556 26.958 102.813 26.958C105.383 26.958 107.46 27.5047 109.045 28.598C110.631 29.6913 111.423 31.468 111.423 33.928C111.423 35.8413 110.795 37.454 109.537 38.766C108.335 40.078 106.859 41.226 105.109 42.21Z" fill="black"/>
<path d="M110.685 91V47.458H123.149L123.559 56.314L120.935 57.298C121.537 55.33 122.603 53.5533 124.133 51.968C125.719 50.328 127.605 49.016 129.791 48.032C131.978 47.048 134.274 46.556 136.679 46.556C139.959 46.556 142.72 47.2393 144.961 48.606C147.203 49.918 148.897 51.9133 150.045 54.592C151.193 57.216 151.767 60.4413 151.767 64.268V91H138.565V65.334C138.565 63.5847 138.319 62.136 137.827 60.988C137.335 59.84 136.57 58.9927 135.531 58.446C134.547 57.8447 133.317 57.5713 131.841 57.626C130.693 57.626 129.627 57.8173 128.643 58.2C127.659 58.528 126.812 59.0473 126.101 59.758C125.391 60.414 124.817 61.1793 124.379 62.054C123.997 62.9287 123.805 63.8853 123.805 64.924V91H117.327C115.797 91 114.485 91 113.391 91C112.298 91 111.396 91 110.685 91Z" fill="black"/>
<path d="M174.052 28.68L147.73 95.756H139.858L166.18 28.68H174.052Z" fill="black"/>
<path d="M139.858 21.956H174.052V30.402H139.858V21.956Z" fill="black"/>
<path d="M140.35 41.39C140.514 39.258 140.924 37.4267 141.58 35.896C142.181 34.3107 142.974 33.026 143.958 32.042C144.942 31.0033 146.063 30.238 147.32 29.746C148.523 29.254 149.835 29.008 151.256 29.008C152.349 29.008 153.443 29.2267 154.536 29.664C155.575 30.0467 156.586 30.5387 157.57 31.14C158.609 31.6867 159.62 32.1787 160.604 32.616C161.588 32.9987 162.572 33.19 163.556 33.19C164.376 33.19 165.169 32.8347 165.934 32.124C166.699 31.4133 167.246 30.3473 167.574 28.926H173.56C173.232 33.1353 172.029 36.2513 169.952 38.274C167.875 40.2967 165.442 41.308 162.654 41.308C161.561 41.308 160.495 41.1167 159.456 40.734C158.417 40.2967 157.379 39.8047 156.34 39.258C155.301 38.6567 154.29 38.1647 153.306 37.782C152.322 37.3447 151.338 37.126 150.354 37.126C149.534 37.126 148.741 37.4813 147.976 38.192C147.211 38.9027 146.664 39.9687 146.336 41.39H140.35Z" fill="black"/>
<path d="M164.13 91V33.6H189.96C193.623 33.6 196.93 34.3927 199.882 35.978C202.889 37.5633 205.239 39.75 206.934 42.538C208.629 45.2713 209.476 48.3873 209.476 51.886C209.476 55.494 208.629 58.7467 206.934 61.644C205.239 64.4867 202.916 66.728 199.964 68.368C197.012 70.008 193.677 70.828 189.96 70.828H177.414V91H164.13ZM195.946 91L181.35 65.088L195.618 63.038L211.854 91H195.946ZM177.414 60.168H188.73C190.151 60.168 191.381 59.8673 192.42 59.266C193.513 58.61 194.333 57.708 194.88 56.56C195.481 55.412 195.782 54.1 195.782 52.624C195.782 51.148 195.454 49.8633 194.798 48.77C194.142 47.622 193.185 46.7473 191.928 46.146C190.725 45.5447 189.249 45.244 187.5 45.244H177.414V60.168Z" fill="black"/>
<path d="M197.844 74.108C198.008 71.976 198.418 70.1447 199.074 68.614C199.676 67.0287 200.468 65.744 201.452 64.76C202.436 63.7213 203.557 62.956 204.814 62.464C206.017 61.972 207.329 61.726 208.75 61.726C209.844 61.726 210.937 61.9447 212.03 62.382C213.069 62.7647 214.08 63.2567 215.064 63.858C216.103 64.4047 217.114 64.8967 218.098 65.334C219.082 65.7167 220.066 65.908 221.05 65.908C221.87 65.908 222.663 65.5527 223.428 64.842C224.194 64.1313 224.74 63.0653 225.068 61.644H231.054C230.726 65.8533 229.524 68.9693 227.446 70.992C225.369 73.0147 222.936 74.026 220.148 74.026C219.055 74.026 217.989 73.8347 216.95 73.452C215.912 73.0147 214.873 72.5227 213.834 71.976C212.796 71.3747 211.784 70.8827 210.8 70.5C209.816 70.0627 208.832 69.844 207.848 69.844C207.028 69.844 206.236 70.1993 205.47 70.91C204.705 71.6207 204.158 72.6867 203.83 74.108H197.844Z" fill="black"/>
<path d="M229.496 24.17C229.223 27.122 228.376 29.6093 226.954 31.632C225.588 33.6547 223.456 34.666 220.558 34.666C219.356 34.666 218.18 34.4473 217.032 34.01C215.939 33.518 214.9 32.9987 213.916 32.452C212.878 31.8507 211.921 31.3313 211.046 30.894C210.117 30.402 209.242 30.156 208.422 30.156C207.22 30.156 206.345 30.5387 205.798 31.304C205.252 32.0147 204.787 33.1627 204.404 34.748H199.402C199.676 31.796 200.55 29.3087 202.026 27.286C203.502 25.2633 205.634 24.252 208.422 24.252C209.789 24.252 211.046 24.498 212.194 24.99C213.288 25.4273 214.326 25.9467 215.31 26.548C216.294 27.0947 217.224 27.614 218.098 28.106C218.973 28.5433 219.82 28.762 220.64 28.762C221.788 28.762 222.636 28.3793 223.182 27.614C223.784 26.794 224.221 25.646 224.494 24.17H229.496ZM214.49 35.158C216.021 35.158 217.278 35.568 218.262 36.388C219.246 37.208 219.738 38.4653 219.738 40.16C219.738 41.7453 219.246 42.9753 218.262 43.85C217.278 44.67 216.021 45.08 214.49 45.08C212.96 45.08 211.73 44.67 210.8 43.85C209.816 42.9753 209.324 41.7453 209.324 40.16C209.324 38.4653 209.816 37.208 210.8 36.388C211.73 35.568 212.96 35.158 214.49 35.158ZM214.49 13.838C216.021 13.838 217.278 14.248 218.262 15.068C219.246 15.888 219.738 17.1453 219.738 18.84C219.738 20.4253 219.246 21.6553 218.262 22.53C217.278 23.35 216.021 23.76 214.49 23.76C212.96 23.76 211.73 23.35 210.8 22.53C209.816 21.6553 209.324 20.4253 209.324 18.84C209.324 17.1453 209.816 15.888 210.8 15.068C211.73 14.248 212.96 13.838 214.49 13.838Z" fill="black"/>
<path d="M221.214 39.012V30.73H248.766V39.012H221.214Z" fill="black"/>
<path d="M241.058 91.82C236.248 91.82 232.066 90.8633 228.512 88.95C224.959 86.982 222.198 84.3307 220.23 80.996C218.262 77.6067 217.278 73.7527 217.278 69.434C217.278 66.0993 217.825 63.038 218.918 60.25C220.012 57.462 221.542 55.0567 223.51 53.034C225.478 50.9567 227.802 49.3713 230.48 48.278C233.214 47.13 236.193 46.556 239.418 46.556C242.48 46.556 245.268 47.1027 247.782 48.196C250.352 49.2893 252.566 50.82 254.424 52.788C256.283 54.756 257.704 57.0793 258.688 59.758C259.672 62.4367 260.11 65.3613 260 68.532L259.918 72.058H225.232L223.346 64.678H249.258L247.864 66.236V64.596C247.755 63.2293 247.318 62.0267 246.552 60.988C245.842 59.8947 244.885 59.0473 243.682 58.446C242.48 57.8447 241.113 57.544 239.582 57.544C237.45 57.544 235.619 57.9813 234.088 58.856C232.612 59.676 231.492 60.906 230.726 62.546C229.961 64.1313 229.578 66.0993 229.578 68.45C229.578 70.8553 230.07 72.96 231.054 74.764C232.093 76.5133 233.569 77.88 235.482 78.864C237.45 79.848 239.774 80.34 242.452 80.34C244.311 80.34 245.951 80.0667 247.372 79.52C248.848 78.9733 250.434 78.044 252.128 76.732L258.278 85.424C256.584 86.9 254.78 88.1027 252.866 89.032C250.953 89.9613 248.985 90.6447 246.962 91.082C244.994 91.574 243.026 91.82 241.058 91.82Z" fill="black"/>
<path d="M245.891 74.108C246.055 71.976 246.465 70.1447 247.121 68.614C247.722 67.0287 248.515 65.744 249.499 64.76C250.483 63.7213 251.604 62.956 252.861 62.464C254.064 61.972 255.376 61.726 256.797 61.726C257.89 61.726 258.984 61.9447 260.077 62.382C261.116 62.7647 262.127 63.2567 263.111 63.858C264.15 64.4047 265.161 64.8967 266.145 65.334C267.129 65.7167 268.113 65.908 269.097 65.908C269.917 65.908 270.71 65.5527 271.475 64.842C272.24 64.1313 272.787 63.0653 273.115 61.644H279.101C278.773 65.8533 277.57 68.9693 275.493 70.992C273.416 73.0147 270.983 74.026 268.195 74.026C267.102 74.026 266.036 73.8347 264.997 73.452C263.958 73.0147 262.92 72.5227 261.881 71.976C260.842 71.3747 259.831 70.8827 258.847 70.5C257.863 70.0627 256.879 69.844 255.895 69.844C255.075 69.844 254.282 70.1993 253.517 70.91C252.752 71.6207 252.205 72.6867 251.877 74.108H245.891Z" fill="black"/>
<path d="M244.661 28.516H280.413V42.456H275.001V33.436H250.073V42.456H244.661V28.516Z" fill="black"/>
<path d="M270.571 4.354C270.079 6.26733 269.451 8.34467 268.685 10.586C267.92 12.7727 267.1 14.9867 266.225 17.228C265.351 19.4147 264.449 21.5193 263.519 23.542H254.745C255.128 21.902 255.511 20.2073 255.893 18.458C256.276 16.7087 256.659 14.9593 257.041 13.21C257.369 11.406 257.697 9.684 258.025 8.044C258.299 6.404 258.545 4.87333 258.763 3.452H269.997L270.571 4.354Z" fill="black"/>
<path d="M294.517 91.902C292.549 91.902 290.663 91.6287 288.859 91.082C287.055 90.5353 285.415 89.7973 283.939 88.868C282.518 87.9387 281.315 86.8727 280.331 85.67C279.402 84.4127 278.773 83.128 278.445 81.816L281.315 80.832L280.577 90.918H268.359V30.32H281.561V57.872L278.855 56.888C279.183 55.4667 279.812 54.1547 280.741 52.952C281.67 51.6947 282.846 50.6013 284.267 49.672C285.688 48.688 287.246 47.9227 288.941 47.376C290.636 46.8293 292.385 46.556 294.189 46.556C297.961 46.556 301.296 47.54 304.193 49.508C307.145 51.4213 309.468 54.1 311.163 57.544C312.858 60.9333 313.705 64.8147 313.705 69.188C313.705 73.616 312.858 77.552 311.163 80.996C309.523 84.3853 307.254 87.064 304.357 89.032C301.46 90.9453 298.18 91.902 294.517 91.902ZM291.073 80.832C293.041 80.832 294.763 80.34 296.239 79.356C297.715 78.372 298.836 77.0327 299.601 75.338C300.421 73.5887 300.831 71.5387 300.831 69.188C300.831 66.892 300.421 64.8693 299.601 63.12C298.836 61.3707 297.715 60.0313 296.239 59.102C294.763 58.1727 293.041 57.708 291.073 57.708C289.05 57.708 287.301 58.1727 285.825 59.102C284.349 60.0313 283.201 61.3707 282.381 63.12C281.561 64.8693 281.151 66.892 281.151 69.188C281.151 71.5387 281.561 73.5887 282.381 75.338C283.201 77.0327 284.349 78.372 285.825 79.356C287.301 80.34 289.05 80.832 291.073 80.832Z" fill="black"/>
<path d="M302.16 71.73L326.678 57.052L330.942 64.268L306.506 79.028L302.16 71.73Z" fill="black"/>
<path d="M330.532 43.194L326.678 37.208L341.356 25.564L347.342 34.174L330.532 43.194Z" fill="black"/>
<path d="M309.786 13.756H329.958V33.436H324.546V18.676H309.786V13.756Z" fill="black"/>
<path d="M343.078 91.82C338.267 91.82 334.085 90.8633 330.532 88.95C326.978 86.982 324.218 84.3307 322.25 80.996C320.282 77.6067 319.298 73.7527 319.298 69.434C319.298 66.0993 319.844 63.038 320.938 60.25C322.031 57.462 323.562 55.0567 325.53 53.034C327.498 50.9567 329.821 49.3713 332.5 48.278C335.233 47.13 338.212 46.556 341.438 46.556C344.499 46.556 347.287 47.1027 349.802 48.196C352.371 49.2893 354.585 50.82 356.444 52.788C358.302 54.756 359.724 57.0793 360.708 59.758C361.692 62.4367 362.129 65.3613 362.02 68.532L361.938 72.058H327.252L325.366 64.678H351.278L349.884 66.236V64.596C349.774 63.2293 349.337 62.0267 348.572 60.988C347.861 59.8947 346.904 59.0473 345.702 58.446C344.499 57.8447 343.132 57.544 341.602 57.544C339.47 57.544 337.638 57.9813 336.108 58.856C334.632 59.676 333.511 60.906 332.746 62.546C331.98 64.1313 331.598 66.0993 331.598 68.45C331.598 70.8553 332.09 72.96 333.074 74.764C334.112 76.5133 335.588 77.88 337.502 78.864C339.47 79.848 341.793 80.34 344.472 80.34C346.33 80.34 347.97 80.0667 349.392 79.52C350.868 78.9733 352.453 78.044 354.148 76.732L360.298 85.424C358.603 86.9 356.799 88.1027 354.886 89.032C352.972 89.9613 351.004 90.6447 348.982 91.082C347.014 91.574 345.046 91.82 343.078 91.82Z" fill="black"/>
<path d="M334.217 72.468V64.022H394.897V72.468H334.217Z" fill="black"/>
<path d="M370.379 43.03C367.536 43.03 365.131 42.1827 363.163 40.488C361.195 38.7933 360.211 36.4427 360.211 33.436C360.211 30.5387 361.195 28.2427 363.163 26.548C365.131 24.8533 367.536 24.006 370.379 24.006V29.664C369.285 29.664 368.356 30.0193 367.591 30.73C366.88 31.386 366.525 32.3153 366.525 33.518C366.525 34.7207 366.88 35.6773 367.591 36.388C368.356 37.044 369.285 37.372 370.379 37.372V43.03Z" fill="black"/>
<path d="M358.891 4.22C359.984 4.76667 361.269 5.39534 362.745 6.106C364.166 6.81667 365.642 7.5 367.173 8.156C368.704 8.812 370.125 9.33133 371.437 9.714V15.29C370.125 15.618 368.704 16.11 367.173 16.766C365.642 17.3673 364.166 18.0233 362.745 18.734C361.269 19.39 359.984 20.0187 358.891 20.62H357.989V16.438C358.973 15.782 360.094 15.126 361.351 14.47C362.608 13.814 364.002 13.1307 365.533 12.42C364.002 11.6547 362.636 10.9713 361.433 10.37C360.23 9.714 359.082 9.03067 357.989 8.32V4.22H358.891Z" fill="black"/>
<path d="M370.461 91V30.32H383.581V91H370.461Z" fill="black"/>
<path d="M375.111 71.73L399.629 57.052L403.893 64.268L379.457 79.028L375.111 71.73Z" fill="black"/>
<path d="M399.137 29.172L395.119 24.498L406.271 15.806H413.651L424.803 24.498L420.785 29.172L408.731 23.35H411.191L399.137 29.172Z" fill="black"/>
<path d="M399.137 14.172L395.119 9.498L406.271 0.806H413.651L424.803 9.498L420.785 14.172L408.731 8.35H411.191L399.137 14.172Z" fill="black"/>
<path d="M409.961 91.82C405.697 91.82 401.925 91.1367 398.645 89.77C395.42 88.4033 392.85 86.572 390.937 84.276L398.891 77.388C400.586 79.0827 402.499 80.34 404.631 81.16C406.763 81.9253 408.786 82.308 410.699 82.308C411.464 82.308 412.148 82.226 412.749 82.062C413.35 81.898 413.842 81.6793 414.225 81.406C414.662 81.078 414.99 80.7227 415.209 80.34C415.428 79.9027 415.537 79.4107 415.537 78.864C415.537 77.7707 415.045 76.9233 414.061 76.322C413.569 76.0487 412.749 75.7207 411.601 75.338C410.453 74.9553 408.977 74.518 407.173 74.026C404.604 73.37 402.362 72.6047 400.449 71.73C398.59 70.8007 397.06 69.7347 395.857 68.532C394.764 67.384 393.916 66.1267 393.315 64.76C392.714 63.3387 392.413 61.7533 392.413 60.004C392.413 57.9813 392.878 56.15 393.807 54.51C394.791 52.87 396.076 51.4487 397.661 50.246C399.301 49.0433 401.16 48.1413 403.237 47.54C405.369 46.884 407.556 46.556 409.797 46.556C412.202 46.556 414.498 46.8293 416.685 47.376C418.872 47.9227 420.894 48.688 422.753 49.672C424.666 50.656 426.361 51.8313 427.837 53.198L420.949 60.906C419.965 59.9767 418.844 59.1567 417.587 58.446C416.384 57.6807 415.127 57.0793 413.815 56.642C412.503 56.2047 411.3 55.986 410.207 55.986C409.387 55.986 408.649 56.068 407.993 56.232C407.392 56.3413 406.872 56.56 406.435 56.888C405.998 57.1613 405.67 57.5167 405.451 57.954C405.232 58.3367 405.123 58.8013 405.123 59.348C405.123 59.8947 405.26 60.414 405.533 60.906C405.861 61.398 406.298 61.808 406.845 62.136C407.392 62.464 408.266 62.8467 409.469 63.284C410.672 63.6667 412.312 64.1587 414.389 64.76C416.958 65.4707 419.172 66.2633 421.031 67.138C422.89 68.0127 424.366 69.0513 425.459 70.254C426.334 71.1833 426.99 72.2767 427.427 73.534C427.864 74.7367 428.083 76.0487 428.083 77.47C428.083 80.258 427.29 82.7453 425.705 84.932C424.174 87.064 422.042 88.7587 419.309 90.016C416.576 91.2187 413.46 91.82 409.961 91.82Z" fill="black"/>
<path d="M447.199 28.68L420.877 95.756H413.005L439.327 28.68H447.199Z" fill="black"/>
<path d="M428.913 94.608C429.733 95.8107 430.689 97.15 431.783 98.626C432.931 100.157 434.079 101.605 435.227 102.972C436.429 104.393 437.468 105.623 438.343 106.662V107.728H430.225C429.186 107.017 427.983 106.115 426.617 105.022C425.195 103.983 423.774 102.863 422.353 101.66C420.877 100.457 419.51 99.3093 418.253 98.216C416.995 97.1227 415.984 96.1933 415.219 95.428V94.608H428.913Z" fill="black"/>
<path d="M438.015 33.354C437.523 35.2673 436.894 37.3447 436.129 39.586C435.363 41.7727 434.543 43.9867 433.669 46.228C432.794 48.4147 431.892 50.5193 430.963 52.542H422.189C422.571 50.902 422.954 49.2073 423.337 47.458C423.719 45.7087 424.102 43.9593 424.485 42.21C424.813 40.406 425.141 38.684 425.469 37.044C425.742 35.404 425.988 33.8733 426.207 32.452H437.441L438.015 33.354Z" fill="black"/>
</svg>
