<svg xmlns:xlink="http://www.w3.org/1999/xlink" width="450" xmlns="http://www.w3.org/2000/svg" height="450" id="screenshot-bc78c679-8093-803a-8002-6b902502d68e" viewBox="0 0 450 450" style="-webkit-print-color-adjust: exact;" fill="none" version="1.1"><g id="shape-bc78c679-8093-803a-8002-6b902502d68e"><defs><clipPath class="frame-clip-def frame-clip" id="frame-clip-bc78c679-8093-803a-8002-6b902502d68e-rumext-id-13"><rect rx="0" ry="0" x="0" y="0" width="450" height="450" transform="matrix(1.000000, 0.000000, 0.000000, 1.000000, 0.000000, 0.000000)"/></clipPath></defs><g clip-path="url(#frame-clip-bc78c679-8093-803a-8002-6b902502d68e-rumext-id-13)"><clipPath class="frame-clip-def frame-clip" id="frame-clip-bc78c679-8093-803a-8002-6b902502d68e-rumext-id-13"><rect rx="0" ry="0" x="0" y="0" width="450" height="450" transform="matrix(1.000000, 0.000000, 0.000000, 1.000000, 0.000000, 0.000000)"/></clipPath><g class="fills" id="fills-bc78c679-8093-803a-8002-6b902502d68e"><rect rx="0" ry="0" x="0" y="0" transform="matrix(1.000000, 0.000000, 0.000000, 1.000000, 0.000000, 0.000000)" width="450" height="450" class="frame-background"/></g><g class="frame-children"><g id="shape-bc78c679-8093-803a-8002-6b90437aef51" rx="0" ry="0"><g id="shape-bc78c679-8093-803a-8002-6b90437aef52"><g class="fills" id="fills-bc78c679-8093-803a-8002-6b90437aef52"><ellipse rx="14.356128203296976" ry="14.350925291295425" cx="196.36650248649676" cy="179.5588302490287" transform="matrix(1.000000, 0.000000, 0.000000, 1.000000, 0.000000, 0.000000)" style="fill: rgb(0, 0, 0); fill-opacity: 1;"/></g></g><g id="shape-bc78c679-8093-803a-8002-6b90437aef53"><g class="fills" id="fills-bc78c679-8093-803a-8002-6b90437aef53"><ellipse rx="14.356128203298795" ry="14.350925291295425" cx="64.3561282032988" cy="168.8889650445508" transform="matrix(1.000000, 0.000000, 0.000000, 1.000000, 0.000000, 0.000000)" style="fill: rgb(0, 0, 0); fill-opacity: 1;"/></g></g><g id="shape-bc78c679-8093-803a-8002-6b90437aef54"><g class="fills" id="fills-bc78c679-8093-803a-8002-6b90437aef54"><path rx="0" ry="0" d="M148.322,230.087C143.328,230.087,139.585,233.828,139.585,238.820C139.585,243.812,135.216,248.179,130.222,248.179C125.229,248.179,120.860,243.812,120.860,238.820C120.860,233.828,117.117,230.087,112.123,230.087C107.129,230.087,103.386,233.828,103.386,238.820C103.386,253.171,115.241,265.022,129.597,265.022C143.953,265.022,155.808,253.171,155.808,238.820C157.059,233.828,153.315,230.087,148.322,230.087ZZ" style="fill: rgb(0, 0, 0); fill-opacity: 1;"/></g></g></g></g></g></g></svg>