<svg width="332" height="78" viewBox="0 0 332 78" fill="none" xmlns="http://www.w3.org/2000/svg">
<path d="M20.058 69.126C14.7553 69.126 10.3547 68.0873 6.85599 66.01C2.48266 63.4953 0.29599 59.8053 0.29599 54.94C0.29599 50.2387 2.07266 46.3573 5.62599 43.296C9.12466 40.2893 13.1973 38.786 17.844 38.786C20.4133 38.786 21.698 39.0047 21.698 39.442C21.698 39.5513 20.7413 39.606 18.828 39.606C14.5093 39.606 10.7373 40.918 7.51199 43.542C4.06799 46.2207 2.34599 49.856 2.34599 54.448C2.34599 58.876 3.93132 62.3473 7.10199 64.862C10.1633 67.322 13.8807 68.552 18.254 68.552C22.2993 68.552 26.7273 67.568 31.538 65.6C39.6833 62.32 43.756 57.2087 43.756 50.266C43.756 48.298 43.2913 46.4393 42.362 44.69C41.4327 42.886 40.0113 41.3007 38.098 39.934C36.4033 38.6767 34.6813 37.556 32.932 36.572C31.2373 35.5333 29.5153 34.4127 27.766 33.21C25.9073 31.9527 24.5133 30.5313 23.584 28.946C22.6547 27.3607 22.19 25.7207 22.19 24.026C22.19 21.6207 23.092 19.434 24.896 17.466C23.256 17.63 21.862 18.4227 20.714 19.844C19.6207 21.3747 19.074 22.96 19.074 24.6C19.074 26.404 19.5113 28.126 20.386 29.766C21.2607 31.406 22.6 32.9093 24.404 34.276C25.9893 35.4787 27.602 36.654 29.242 37.802C30.9367 38.8953 32.604 39.9887 34.244 41.082C37.7427 43.9247 39.492 47.3413 39.492 51.332C39.492 55.1587 37.524 58.7667 33.588 62.156C31.7293 63.796 29.816 64.9987 27.848 65.764C25.88 66.584 23.9393 66.994 22.026 66.994C21.7527 66.994 21.616 66.912 21.616 66.748C21.616 66.42 21.8073 66.256 22.19 66.256C23.1193 66.1467 23.9393 66.01 24.65 65.846C25.3607 65.682 25.9893 65.518 26.536 65.354C29.488 64.1513 32.0847 62.32 34.326 59.86C36.786 57.072 38.016 54.2293 38.016 51.332C38.016 49.4187 37.5787 47.6147 36.704 45.92C35.884 44.2253 34.5993 42.722 32.85 41.41C31.3193 40.2073 29.734 39.0867 28.094 38.048C26.454 37.0093 24.8413 35.8887 23.256 34.686C21.452 33.374 20.1127 31.8707 19.238 30.176C18.418 28.4267 18.008 26.5953 18.008 24.682C18.008 22.6593 18.6913 20.8827 20.058 19.352C20.7687 18.5867 21.5613 18.0127 22.436 17.63C23.3107 17.1927 24.2673 16.974 25.306 16.974H25.388C29.2693 13.2567 34.4353 11.398 40.886 11.398C46.6807 11.398 50.644 12.7373 52.776 15.416C53.432 16.236 53.76 17.1107 53.76 18.04C53.76 19.844 52.612 21.156 50.316 21.976C48.676 22.632 46.79 22.96 44.658 22.96C43.6193 22.96 42.526 22.9053 41.378 22.796C40.23 22.632 39.0273 22.386 37.77 22.058C36.294 21.7847 35.0367 21.4293 33.998 20.992C32.9593 20.5 32.0847 20.008 31.374 19.516C31.2647 19.4067 31.21 19.3247 31.21 19.27C31.21 19.106 31.292 19.024 31.456 19.024C31.5653 19.024 31.6473 19.0513 31.702 19.106C34.7633 21.074 39 22.058 44.412 22.058C45.3413 22.058 46.1887 21.976 46.954 21.812C47.7193 21.648 48.43 21.4567 49.086 21.238C50.89 20.418 51.792 19.3247 51.792 17.958C51.792 15.99 50.3707 14.514 47.528 13.53C45.396 12.7647 43.182 12.382 40.886 12.382C34.1073 12.382 29.4333 14.6233 26.864 19.106C26.0987 20.4727 25.716 21.894 25.716 23.37C25.716 26.7047 27.5747 29.6293 31.292 32.144C32.9867 33.2373 34.6813 34.3307 36.376 35.424C38.1253 36.5173 39.8473 37.6107 41.542 38.704C45.2593 41.7653 47.118 45.51 47.118 49.938C47.118 55.9513 44.002 60.8167 37.77 64.534C32.4673 67.5953 26.5633 69.126 20.058 69.126Z" fill="black"/>
<path d="M93.6767 17.548V61.5H87.7727L86.7067 55.678H86.3787C85.4494 57.2087 84.2467 58.466 82.7707 59.45C81.2947 60.434 79.682 61.1447 77.9327 61.582C76.1834 62.074 74.352 62.32 72.4387 62.32C68.94 62.32 65.988 61.7733 63.5827 60.68C61.232 59.532 59.4554 57.7827 58.2527 55.432C57.05 53.0813 56.4487 50.0473 56.4487 46.33V17.548H63.7467V45.838C63.7467 49.3367 64.5394 51.9607 66.1247 53.71C67.71 55.4593 70.17 56.334 73.5047 56.334C76.7847 56.334 79.354 55.7327 81.2127 54.53C83.126 53.2727 84.4654 51.4687 85.2307 49.118C86.0507 46.7127 86.4607 43.8153 86.4607 40.426V17.548H93.6767Z" fill="black"/>
<path d="M100.742 63.222C100.25 63.222 100.004 62.8667 100.004 62.156V61.992C100.223 61.2267 100.441 60.27 100.66 59.122C100.933 57.974 101.234 56.6347 101.562 55.104C101.89 53.5733 102.3 51.66 102.792 49.364C103.284 47.0133 103.885 44.3073 104.596 41.246C104.541 41.1367 104.432 40.8907 104.268 40.508C104.159 40.0707 103.967 39.524 103.694 38.868C103.421 38.1573 103.202 37.638 103.038 37.31C102.874 36.982 102.792 36.818 102.792 36.818C102.792 36.4353 103.257 36.08 104.186 35.752C106.919 34.7133 108.669 34.194 109.434 34.194C110.254 34.194 110.664 34.44 110.664 34.932C110.609 34.768 109.215 38.2667 106.482 45.428V46.166C106.482 47.6967 106.236 48.462 105.744 48.462C105.689 48.462 105.607 48.38 105.498 48.216C105.061 49.5827 104.623 50.8947 104.186 52.152C103.803 53.3547 103.448 54.5573 103.12 55.76C104.323 53.792 105.553 51.906 106.81 50.102C108.122 48.298 109.461 46.6033 110.828 45.018C114.928 40.262 118.317 37.884 120.996 37.884C122.253 37.884 122.882 38.376 122.882 39.36C122.882 39.688 122.8 40.098 122.636 40.59C122.144 42.4487 121.515 44.7993 120.75 47.642C120.039 50.43 119.165 53.6827 118.126 57.4C121.297 55.0493 123.757 52.5347 125.506 49.856C125.779 49.528 125.971 49.364 126.08 49.364C126.244 49.364 126.326 49.4733 126.326 49.692C126.326 49.8013 126.244 49.9927 126.08 50.266C123.675 54.53 120.75 57.9193 117.306 60.434C117.087 60.762 116.732 60.926 116.24 60.926C115.857 60.926 115.666 60.7073 115.666 60.27C115.666 60.1607 115.721 59.6687 115.83 58.794C115.994 57.8647 116.24 56.58 116.568 54.94C116.841 53.7373 117.087 52.562 117.306 51.414C117.525 50.266 117.743 49.0907 117.962 47.888C118.235 46.5213 118.399 45.264 118.454 44.116C118.563 42.9133 118.645 41.82 118.7 40.836C117.497 41.3827 116.185 42.2847 114.764 43.542C113.397 44.7447 111.867 46.2753 110.172 48.134C107.056 51.578 104.815 54.5847 103.448 57.154C102.683 58.63 102.109 60.2153 101.726 61.91C101.507 62.7847 101.179 63.222 100.742 63.222ZM105.088 39.032L105.826 36.326C105.553 36.5447 105.033 36.818 104.268 37.146C104.432 37.474 104.569 37.802 104.678 38.13C104.842 38.458 104.979 38.7587 105.088 39.032Z" fill="black"/>
<path d="M213.79 77.736C210.182 77.736 206.41 76.014 202.474 72.57C197.773 68.5247 193.481 62.3747 189.6 54.12C189.108 53.136 188.507 51.9333 187.796 50.512C187.085 49.036 186.265 47.3687 185.336 45.51H183.942C174.977 63.9873 164.617 73.226 152.864 73.226C148.819 73.226 145.593 71.914 143.188 69.29C140.783 66.7207 139.58 63.304 139.58 59.04C139.58 54.612 140.865 50.7033 143.434 47.314C146.331 43.706 149.912 41.902 154.176 41.902C155.433 41.902 156.581 42.2573 157.62 42.968C158.768 43.5693 159.342 44.4987 159.342 45.756C159.342 46.0293 159.26 46.2207 159.096 46.33C158.932 45.674 158.686 45.1547 158.358 44.772C157.811 43.8427 156.691 43.378 154.996 43.378C151.169 43.378 148.053 45.3187 145.648 49.2C143.516 52.5347 142.45 56.2247 142.45 60.27C142.45 63.714 143.27 66.502 144.91 68.634C146.659 71.094 149.229 72.324 152.618 72.324C159.014 72.324 165.273 67.978 171.396 59.286C173.036 56.8807 174.567 54.5027 175.988 52.152C177.409 49.8013 178.694 47.4507 179.842 45.1C179.077 44.9907 178.311 44.8267 177.546 44.608C176.835 44.3347 176.097 44.0613 175.332 43.788C173.965 46.74 172.462 49.528 170.822 52.152C169.237 54.7213 167.542 57.1813 165.738 59.532C160.599 66.42 155.953 69.864 151.798 69.864C151.306 69.864 151.06 69.6727 151.06 69.29C151.06 68.962 151.306 68.7707 151.798 68.716C152.071 68.6613 152.427 68.5793 152.864 68.47C153.356 68.4153 153.903 68.306 154.504 68.142C156.417 67.3767 158.331 66.092 160.244 64.288C162.212 62.5387 164.235 60.27 166.312 57.482C167.843 55.4047 169.291 53.1907 170.658 50.84C172.025 48.4893 173.337 46.0293 174.594 43.46C170.877 41.7107 169.018 39.8247 169.018 37.802C169.018 36.818 169.537 35.8887 170.576 35.014C171.669 34.194 172.735 33.784 173.774 33.784C175.141 33.784 176.562 34.3307 178.038 35.424C181.318 26.7867 183.286 18.7233 183.942 11.234C178.967 11.4527 174.129 12.3273 169.428 13.858C163.961 15.6073 159.725 18.0673 156.718 21.238C154.641 23.2607 153.602 25.584 153.602 28.208C153.602 32.5267 155.898 35.588 160.49 37.392C161.091 37.72 162.185 38.048 163.77 38.376C164.098 38.4307 164.262 38.5673 164.262 38.786C164.262 38.95 164.071 39.032 163.688 39.032H163.524C161.884 39.032 160.299 38.6767 158.768 37.966C157.237 37.2553 155.761 36.2987 154.34 35.096C151.333 32.5813 149.83 29.684 149.83 26.404C149.83 24.1627 150.787 22.0853 152.7 20.172C154.285 18.5867 156.281 17.138 158.686 15.826C161.146 14.514 164.043 13.3933 167.378 12.464C172.517 11.0427 178.065 10.1953 184.024 9.922V4.592C184.024 4.20933 184.188 4.018 184.516 4.018C184.68 4.018 184.762 4.15466 184.762 4.428C184.981 5.95866 185.063 7.76266 185.008 9.84H188.698C190.939 9.84 193.071 9.94933 195.094 10.168C197.117 10.3867 199.085 10.6873 200.998 11.07C205.809 12.1633 209.772 13.776 212.888 15.908C217.043 18.8053 219.12 22.3313 219.12 26.486C219.12 30.5313 217.125 34.1667 213.134 37.392C210.073 39.9067 206.191 41.8747 201.49 43.296C199.358 43.952 197.089 44.4713 194.684 44.854C192.333 45.182 189.846 45.4007 187.222 45.51C188.971 47.8607 190.721 50.2387 192.47 52.644C194.219 54.9947 195.996 57.3727 197.8 59.778C200.205 63.058 202.392 65.7367 204.36 67.814C206.328 69.8913 207.995 71.3947 209.362 72.324C212.041 74.1827 214.364 75.112 216.332 75.112C219.284 75.112 220.76 73.144 220.76 69.208C220.76 65.6547 219.639 62.3473 217.398 59.286C217.234 59.122 217.152 58.9853 217.152 58.876C217.152 58.712 217.234 58.63 217.398 58.63C217.726 58.63 217.999 58.794 218.218 59.122C220.787 62.1833 222.072 65.436 222.072 68.88C222.072 71.504 221.307 73.6087 219.776 75.194C218.245 76.8887 216.25 77.736 213.79 77.736ZM185.828 43.624C188.725 43.624 191.431 43.4873 193.946 43.214C196.461 42.9407 198.839 42.5033 201.08 41.902C204.797 40.754 207.913 39.2233 210.428 37.31C213.489 34.7407 215.02 31.7613 215.02 28.372C215.02 24.4907 213.216 21.074 209.608 18.122C208.132 16.8647 206.492 15.7987 204.688 14.924C202.884 14.0493 200.943 13.3113 198.866 12.71C194.93 11.6713 190.803 11.152 186.484 11.152H184.926C184.434 18.532 182.384 26.7867 178.776 35.916C179.377 36.408 179.979 36.9547 180.58 37.556C181.181 38.1027 181.783 38.7313 182.384 39.442C184.461 34.4127 186.211 28.7 187.632 22.304C187.687 22.0307 187.741 21.7027 187.796 21.32C187.851 20.8827 187.96 20.418 188.124 19.926C188.616 18.286 189.682 17.466 191.322 17.466C192.306 17.466 192.798 17.8487 192.798 18.614C192.798 18.8873 192.743 19.3247 192.634 19.926C192.525 20.4727 192.361 21.2107 192.142 22.14C190.666 28.9187 188.37 35.834 185.254 42.886L185.828 43.624ZM175.332 41.902C175.769 40.9727 176.179 40.0433 176.562 39.114C176.945 38.1847 177.327 37.2553 177.71 36.326C176.945 35.834 176.234 35.4513 175.578 35.178C174.977 34.9047 174.375 34.768 173.774 34.768C172.243 34.768 171.478 35.5333 171.478 37.064C171.478 38.868 172.763 40.4807 175.332 41.902ZM180.662 43.46C180.881 42.968 181.099 42.5033 181.318 42.066C181.537 41.574 181.755 41.082 181.974 40.59C181.427 39.8247 180.826 39.1413 180.17 38.54C179.569 37.9387 178.967 37.4193 178.366 36.982C178.038 37.8567 177.683 38.7313 177.3 39.606C176.917 40.426 176.535 41.3007 176.152 42.23C177.464 42.8313 178.967 43.2413 180.662 43.46Z" fill="black"/>
<path d="M223.536 63.058C219.655 63.058 217.714 60.5433 217.714 55.514C217.714 54.7487 217.741 53.9287 217.796 53.054C217.905 52.1247 218.069 51.1407 218.288 50.102C218.069 49.938 217.851 49.7193 217.632 49.446C217.413 49.118 217.195 48.7353 216.976 48.298C217.195 48.3527 217.413 48.462 217.632 48.626C217.905 48.7353 218.233 48.8447 218.616 48.954C219.217 46.2207 220.857 43.5147 223.536 40.836C226.433 37.884 229.167 36.408 231.736 36.408C232.337 36.408 232.638 36.49 232.638 36.654C232.638 36.7633 232.255 37.0367 231.49 37.474C229.467 38.5673 227.581 40.262 225.832 42.558C223.973 44.854 222.634 47.15 221.814 49.446C221.869 49.5007 221.896 49.528 221.896 49.528C221.896 49.528 221.923 49.5553 221.978 49.61C224.602 49.61 227.335 48.3527 230.178 45.838C233.021 43.3233 234.442 40.754 234.442 38.13C234.442 37.3647 234.223 36.6267 233.786 35.916C233.403 35.26 232.802 34.932 231.982 34.932C230.943 34.932 229.713 35.342 228.292 36.162C226.925 37.0367 226.16 37.474 225.996 37.474C225.887 37.474 225.832 37.4467 225.832 37.392C225.832 36.736 226.789 36.0253 228.702 35.26C230.342 34.604 231.627 34.276 232.556 34.276C233.868 34.276 234.907 34.6313 235.672 35.342C236.547 36.0527 236.984 37.0367 236.984 38.294C236.984 41.1913 235.098 44.0067 231.326 46.74C227.937 49.1453 224.657 50.4847 221.486 50.758C221.049 52.07 220.83 53.3273 220.83 54.53C220.83 59.0673 222.47 61.336 225.75 61.336C228.265 61.336 230.889 60.2427 233.622 58.056C235.918 56.252 237.831 54.0653 239.362 51.496C239.854 50.7307 240.264 50.348 240.592 50.348C240.647 50.348 240.674 50.4027 240.674 50.512C240.674 50.7307 240.455 51.2227 240.018 51.988C238.323 54.6667 235.945 57.1267 232.884 59.368C229.549 61.828 226.433 63.058 223.536 63.058Z" fill="black"/>
<path d="M241.569 66.01C241.187 66.01 240.995 65.5453 240.995 64.616C240.995 64.0147 241.077 63.2767 241.241 62.402C239.984 61.6367 239.355 60.68 239.355 59.532C239.355 57.728 240.804 55.9513 243.701 54.202C244.139 52.89 244.631 51.4687 245.177 49.938C245.724 48.4073 246.353 46.7947 247.063 45.1C246.571 45.592 246.025 46.166 245.423 46.822C244.822 47.478 244.139 48.2433 243.373 49.118C243.1 49.3913 242.881 49.528 242.717 49.528C242.553 49.528 242.471 49.4187 242.471 49.2C242.471 48.3253 244.303 46.2207 247.965 42.886C250.316 37.0913 252.667 31.488 255.017 26.076C257.368 20.664 259.773 15.416 262.233 10.332C262.452 9.89466 262.725 9.37533 263.053 8.774C263.381 8.118 263.764 7.35266 264.201 6.478C264.803 5.54867 265.923 5.084 267.563 5.084C268.602 5.084 269.121 5.33 269.121 5.822C269.121 5.87666 269.067 6.01333 268.957 6.232C265.623 12.6827 262.589 18.6413 259.855 24.108C257.122 29.5747 254.717 34.5493 252.639 39.032C257.013 35.916 260.457 34.358 262.971 34.358C265.595 34.358 266.907 36.162 266.907 39.77C266.907 42.886 265.923 46.248 263.955 49.856C265.486 49.9107 266.251 50.184 266.251 50.676C266.251 50.8947 266.087 51.004 265.759 51.004C265.65 51.004 265.486 51.004 265.267 51.004C265.049 51.004 264.803 50.9767 264.529 50.922C264.256 50.8673 264.01 50.84 263.791 50.84C263.627 50.84 263.491 50.84 263.381 50.84C261.304 54.2293 258.762 57.072 255.755 59.368C252.257 61.992 248.758 63.304 245.259 63.304C244.166 63.304 243.264 63.1947 242.553 62.976C242.499 63.2493 242.444 63.5227 242.389 63.796C242.389 64.124 242.362 64.4247 242.307 64.698C242.143 65.5727 241.897 66.01 241.569 66.01ZM246.407 52.808C250.617 51.0587 255.455 50.0473 260.921 49.774C261.741 47.478 262.151 44.69 262.151 41.41C262.151 38.6767 261.222 37.31 259.363 37.31C257.45 37.31 254.881 38.5673 251.655 41.082C250.617 43.3233 249.66 45.428 248.785 47.396C247.911 49.364 247.118 51.168 246.407 52.808ZM244.931 61.746C248.102 61.746 251.163 60.68 254.115 58.548C257.122 56.3613 259.227 53.792 260.429 50.84C255.072 51.2773 250.015 52.808 245.259 55.432C244.767 56.6893 244.33 57.8373 243.947 58.876C243.565 59.9147 243.237 60.8167 242.963 61.582C243.237 61.6367 243.537 61.664 243.865 61.664C244.193 61.7187 244.549 61.746 244.931 61.746ZM241.651 60.844C241.761 60.2973 241.897 59.7507 242.061 59.204C242.225 58.6027 242.417 57.9467 242.635 57.236C241.651 58.1107 241.159 58.958 241.159 59.778C241.159 60.1607 241.323 60.516 241.651 60.844Z" fill="black"/>
<path d="M273.184 63.058C269.303 63.058 267.362 60.5433 267.362 55.514C267.362 54.7487 267.39 53.9287 267.444 53.054C267.554 52.1247 267.718 51.1407 267.936 50.102C267.718 49.938 267.499 49.7193 267.28 49.446C267.062 49.118 266.843 48.7353 266.624 48.298C266.843 48.3527 267.062 48.462 267.28 48.626C267.554 48.7353 267.882 48.8447 268.264 48.954C268.866 46.2207 270.506 43.5147 273.184 40.836C276.082 37.884 278.815 36.408 281.384 36.408C281.986 36.408 282.286 36.49 282.286 36.654C282.286 36.7633 281.904 37.0367 281.138 37.474C279.116 38.5673 277.23 40.262 275.48 42.558C273.622 44.854 272.282 47.15 271.462 49.446C271.517 49.5007 271.544 49.528 271.544 49.528C271.544 49.528 271.572 49.5553 271.626 49.61C274.25 49.61 276.984 48.3527 279.826 45.838C282.669 43.3233 284.09 40.754 284.09 38.13C284.09 37.3647 283.872 36.6267 283.434 35.916C283.052 35.26 282.45 34.932 281.63 34.932C280.592 34.932 279.362 35.342 277.94 36.162C276.574 37.0367 275.808 37.474 275.644 37.474C275.535 37.474 275.48 37.4467 275.48 37.392C275.48 36.736 276.437 36.0253 278.35 35.26C279.99 34.604 281.275 34.276 282.204 34.276C283.516 34.276 284.555 34.6313 285.32 35.342C286.195 36.0527 286.632 37.0367 286.632 38.294C286.632 41.1913 284.746 44.0067 280.974 46.74C277.585 49.1453 274.305 50.4847 271.134 50.758C270.697 52.07 270.478 53.3273 270.478 54.53C270.478 59.0673 272.118 61.336 275.398 61.336C277.913 61.336 280.537 60.2427 283.27 58.056C285.566 56.252 287.48 54.0653 289.01 51.496C289.502 50.7307 289.912 50.348 290.24 50.348C290.295 50.348 290.322 50.4027 290.322 50.512C290.322 50.7307 290.104 51.2227 289.666 51.988C287.972 54.6667 285.594 57.1267 282.532 59.368C279.198 61.828 276.082 63.058 273.184 63.058Z" fill="black"/>
<path d="M302.697 0V61.5H295.25V0H302.697Z" fill="black"/>
<path d="M318.619 62.484C316.05 62.484 313.727 61.418 311.649 59.286C309.627 57.0993 308.615 54.7213 308.615 52.152C308.615 50.4573 309.053 49.61 309.927 49.61C310.474 49.61 311.021 50.02 311.567 50.84C313.207 47.0133 315.531 42.6947 318.537 37.884C320.451 34.932 322.692 33.456 325.261 33.456C325.808 33.456 326.437 33.6473 327.147 34.03C327.913 34.4673 328.295 34.932 328.295 35.424C328.295 35.8067 327.94 35.998 327.229 35.998C327.175 35.998 327.093 35.998 326.983 35.998C326.874 35.998 326.737 35.9707 326.573 35.916H325.917C324.66 35.916 323.594 36.2713 322.719 36.982C321.79 37.7473 321.325 38.704 321.325 39.852C321.325 40.2893 321.407 40.754 321.571 41.246C321.899 42.3393 322.227 43.4327 322.555 44.526C322.883 45.6193 323.211 46.7127 323.539 47.806C323.922 49.118 324.195 50.348 324.359 51.496C324.578 52.5893 324.687 53.6007 324.687 54.53C326.163 54.3113 327.421 53.7647 328.459 52.89C329.115 52.3433 329.99 51.25 331.083 49.61C331.247 49.3913 331.411 49.282 331.575 49.282C331.739 49.282 331.821 49.3913 331.821 49.61C331.821 49.8287 331.767 50.02 331.657 50.184C329.799 53.3 327.503 55.1313 324.769 55.678C324.605 57.5913 324.031 59.1767 323.047 60.434C322.009 61.8007 320.533 62.484 318.619 62.484ZM321.325 55.596C321.38 55.3773 321.407 55.186 321.407 55.022C321.407 54.858 321.407 54.6667 321.407 54.448C321.407 53.7373 321.271 52.7807 320.997 51.578C320.779 50.3207 320.451 48.79 320.013 46.986C319.193 43.542 318.893 41.246 319.111 40.098C317.69 41.574 315.367 45.51 312.141 51.906C313.18 52.4527 314.055 52.9447 314.765 53.382C315.531 53.7647 316.132 54.0653 316.569 54.284C318.209 55.0493 319.795 55.4867 321.325 55.596ZM316.897 59.778C319.084 59.778 320.533 58.712 321.243 56.58C316.87 56.58 313.535 55.678 311.239 53.874C311.349 55.1313 312.005 56.416 313.207 57.728C314.41 59.0947 315.64 59.778 316.897 59.778Z" fill="black"/>
</svg>
