<svg width="710" height="710" viewBox="0 0 710 710" fill="none" xmlns="http://www.w3.org/2000/svg">
<path d="M354.667 354.667C267.307 434.563 179.947 515.2 153.813 646.613C138.131 635.415 123.199 623.468 109.011 610.025C156.803 484.588 255.357 418.879 354.664 354.665L354.667 354.667Z" fill="black"/>
<path d="M354.667 354.667C244.907 400.959 139.627 453.229 73.1735 570.453C61.2256 555.521 50.7721 539.093 41.8135 521.923C126.188 418.136 237.44 378.563 354.667 354.669V354.667Z" fill="black"/>
<path d="M354.667 354.667C236.693 368.855 119.467 382.292 19.4133 469.651C13.4393 451.729 8.21548 432.317 5.22534 412.905C117.975 344.212 235.945 349.436 354.665 354.665L354.667 354.667Z" fill="black"/>
<path d="M354.667 354.667C238.188 331.521 121.707 308.375 0 359.146V354.667C0 336.745 1.4948 319.573 3.7344 303.145C132.161 271.785 243.413 312.854 354.667 354.667Z" fill="black"/>
<path d="M354.667 354.667C254.615 288.959 147.84 238.932 14.9333 253.12C20.1625 234.453 27.626 216.532 35.84 200.104C169.493 206.828 263.573 277.76 354.667 354.664V354.667Z" fill="black"/>
<path d="M354.667 354.667C274.771 267.307 194.133 179.947 62.72 153.813C73.9178 138.131 85.8653 123.199 99.308 109.011C224.745 156.803 289.708 255.357 354.668 354.664L354.667 354.667Z" fill="black"/>
<path d="M354.667 354.667C308.375 244.907 256.104 139.627 138.88 73.1734C153.812 61.2255 170.24 50.772 187.411 41.8134C291.197 126.188 330.771 237.44 354.664 354.667H354.667Z" fill="black"/>
<path d="M354.667 354.667C340.479 236.693 327.041 119.467 239.683 19.4133C257.604 13.4393 277.016 8.21548 296.428 5.22534C365.121 117.975 359.897 235.945 354.668 354.665L354.667 354.667Z" fill="black"/>
<path d="M354.667 354.667C377.812 238.188 400.959 121.707 349.438 0H354.667C372.588 0 389.76 1.4948 406.188 3.7344C437.548 132.161 396.48 243.413 354.667 354.667Z" fill="black"/>
<path d="M354.667 354.667C420.375 254.615 470.401 147.84 456.213 14.9333C474.88 20.1625 492.052 27.626 509.229 35.84C502.505 169.493 431.573 263.573 354.669 354.667H354.667Z" fill="black"/>
<path d="M600.32 98.5627C552.533 224.745 453.973 289.709 354.667 354.669C442.027 274.773 529.387 194.136 555.52 62.7227C571.197 73.1757 586.135 85.868 600.317 98.5667L600.32 98.5627Z" fill="black"/>
<path d="M667.52 187.413C583.145 291.2 471.893 330.773 354.667 354.667C464.427 308.375 569.707 256.104 636.16 138.88C648.103 154.563 658.561 170.984 667.52 187.411V187.413Z" fill="black"/>
<path d="M704.107 296.427C591.362 365.12 472.64 359.896 353.92 354.667C471.894 340.479 589.867 327.041 689.174 239.683C696.642 257.6 701.121 276.267 704.105 296.428L704.107 296.427Z" fill="black"/>
<path d="M709.333 354.667C709.333 372.588 707.839 389.76 705.599 406.188C576.427 437.548 465.919 396.48 354.666 354.667C471.144 377.812 587.626 400.959 709.332 349.438L709.333 354.667Z" fill="black"/>
<path d="M694.4 456.213C689.171 474.88 681.707 492.801 673.493 509.229C539.84 502.505 445.76 431.573 354.667 354.669C454.719 420.377 561.493 470.404 694.4 456.216V456.213Z" fill="black"/>
<path d="M646.613 555.52C635.415 571.203 623.468 586.135 610.025 600.323C484.588 552.531 418.879 453.976 354.665 354.669C434.561 442.029 515.199 529.389 646.612 555.523L646.613 555.52Z" fill="black"/>
<path d="M570.453 636.16C555.521 648.108 539.093 658.561 521.923 667.52C418.136 583.145 378.563 471.893 354.669 354.667C400.961 464.427 453.232 569.707 570.456 636.16H570.453Z" fill="black"/>
<path d="M469.653 689.92C451.732 695.894 432.32 701.118 412.908 704.108C344.215 591.363 349.439 472.641 354.668 353.921C368.856 472.64 382.293 589.868 469.652 689.921L469.653 689.92Z" fill="black"/>
<path d="M359.893 709.333H354.664C337.492 709.333 320.315 707.839 303.143 705.599C271.039 576.427 312.851 465.919 354.664 354.666C331.519 471.144 308.372 587.627 359.893 709.333Z" fill="black"/>
<path d="M253.12 694.4C234.453 689.171 217.281 681.707 200.104 673.493C206.828 539.84 277.76 445.013 354.664 354.667C288.956 454.719 238.929 561.493 253.117 694.4H253.12Z" fill="black"/>
</svg>
