<svg width="536" height="209" viewBox="0 0 536 209" fill="none" xmlns="http://www.w3.org/2000/svg">
<path d="M66.3682 49.9817V24.8511C66.3682 22.8719 67.9141 21.3054 69.8673 21.3054H87.4901C89.2156 21.3054 90.6258 22.7299 90.6258 24.4828C90.6258 26.2357 89.2156 27.6114 87.4901 27.6114H73.3183V34.1481H85.4449C87.1704 34.1481 88.5806 35.5726 88.5806 37.321C88.5806 39.0695 87.1704 40.4496 85.4449 40.4496H73.3183V47.2171H87.7178C89.4433 47.2171 90.8535 48.646 90.8535 50.3944C90.8535 52.1429 89.4433 53.523 87.7178 53.523H69.8673C67.9141 53.523 66.3682 51.9565 66.3682 49.9773V49.9817Z" fill="black"/>
<path d="M97.2971 25.0218C97.2971 22.998 98.8485 21.3962 100.809 21.3962H101.538C103.226 21.3962 104.228 22.2447 105.186 23.5153L118.722 41.8702V24.8811C118.722 22.9027 120.274 21.3054 122.185 21.3054C124.097 21.3054 125.649 22.9072 125.649 24.8811V51.0953C125.649 53.1191 124.097 54.7209 122.137 54.7209H121.908C120.221 54.7209 119.219 53.8724 118.261 52.6018L104.223 33.5889V51.236C104.223 53.2144 102.672 54.8117 100.76 54.8117C98.8484 54.8117 97.2971 53.2099 97.2971 51.236V25.0218Z" fill="black"/>
<path d="M133.381 24.8511C133.381 22.8719 134.945 21.3054 136.921 21.3054H145.928C156.038 21.3054 163.021 28.2548 163.021 37.321V37.4142C163.021 46.4804 156.038 53.523 145.928 53.523H136.921C134.945 53.523 133.381 51.9565 133.381 49.9773V24.8467V24.8511ZM145.924 47.1283C151.714 47.1283 155.618 43.2143 155.618 37.5074V37.4142C155.618 31.7073 151.71 27.7046 145.924 27.7046H140.456V47.1283H145.924Z" fill="black"/>
<path d="M182.351 38.15V38.0563C182.351 28.8464 189.421 21.3054 199.148 21.3054C208.875 21.3054 215.858 28.7572 215.858 37.9671V38.0608C215.858 47.2707 208.788 54.8117 199.061 54.8117C189.334 54.8117 182.351 47.3599 182.351 38.15ZM208.606 38.15V38.0563C208.606 32.5009 204.641 27.8737 199.057 27.8737C193.472 27.8737 189.599 32.4072 189.599 37.9626V38.0563C189.599 43.6117 193.564 48.2389 199.148 48.2389C204.732 48.2389 208.606 43.7054 208.606 38.15Z" fill="black"/>
<path d="M222.301 24.9617C222.301 22.9208 223.929 21.3054 225.985 21.3054H244.729C246.591 21.3054 248.075 22.7743 248.075 24.6277C248.075 26.481 246.591 27.9499 244.729 27.9499H229.668V35.02H242.576C244.438 35.02 245.923 36.4935 245.923 38.3423C245.923 40.191 244.438 41.6645 242.576 41.6645H229.668V51.1554C229.668 53.1963 228.041 54.8117 225.985 54.8117C223.929 54.8117 222.301 53.1963 222.301 51.1554V24.9572V24.9617Z" fill="black"/>
<path d="M266.123 50.8999C265.366 50.3436 264.828 49.3163 264.828 48.1993C264.828 46.3376 266.256 44.8975 268.041 44.8975C268.931 44.8975 269.559 45.225 270.002 45.548C272.368 47.3604 274.953 48.4774 277.985 48.4774C280.793 48.4774 282.488 47.3155 282.488 45.4045V45.3103C282.488 43.4979 281.417 42.5648 276.2 41.1696C269.912 39.4963 265.852 37.6795 265.852 31.2151V31.1209C265.852 25.2128 270.402 21.3054 276.781 21.3054C280.574 21.3054 283.873 22.3282 286.682 24.1899C287.439 24.6565 288.2 25.6345 288.2 27.0296C288.2 28.8913 286.772 30.3313 284.987 30.3313C284.316 30.3313 283.783 30.1474 283.249 29.8199C280.974 28.4248 278.832 27.6352 276.69 27.6352C274.058 27.6352 272.678 28.8913 272.678 30.4749V30.5691C272.678 32.7089 274.015 33.4088 279.413 34.8488C285.748 36.5714 289.314 38.9445 289.314 44.6194V44.7136C289.314 51.1825 284.587 54.8117 277.852 54.8117C273.749 54.8117 269.598 53.5107 266.119 50.9044L266.123 50.8999Z" fill="black"/>
<path d="M295.757 40.28V24.9057C295.757 22.896 297.339 21.3054 299.337 21.3054C301.335 21.3054 302.917 22.896 302.917 24.9057V40.0952C302.917 45.4213 305.565 48.1789 309.933 48.1789C314.301 48.1789 316.949 45.5159 316.949 40.3296V24.9057C316.949 22.896 318.531 21.3054 320.529 21.3054C322.527 21.3054 324.109 22.896 324.109 24.9057V40.0457C324.109 49.9543 318.58 54.8117 309.843 54.8117C301.107 54.8117 295.766 49.9047 295.766 40.28H295.757Z" fill="black"/>
<path d="M330.552 24.9404C330.552 22.9114 332.119 21.3054 334.098 21.3054H334.879C336.397 21.3054 337.457 22.1061 338.101 23.1934L346.661 37.4922L355.266 23.1479C356.002 21.9196 357.014 21.31 358.443 21.31H359.224C361.203 21.31 362.77 22.9159 362.77 24.9449V51.1767C362.77 53.2058 361.203 54.8117 359.224 54.8117C357.245 54.8117 355.727 53.1603 355.727 51.1767V34.7125L349.514 44.5255C348.778 45.6583 347.859 46.368 346.568 46.368C345.277 46.368 344.358 45.6583 343.621 44.5255L337.502 34.8535V51.2723C337.502 53.2558 335.935 54.8117 334.005 54.8117C332.074 54.8117 330.552 53.2558 330.552 51.2723V24.9449V24.9404Z" fill="black"/>
<path d="M370.502 24.9404C370.502 22.9114 372.069 21.3054 374.048 21.3054H374.829C376.347 21.3054 377.407 22.1061 378.051 23.1934L386.611 37.4922L395.216 23.1479C395.952 21.9196 396.964 21.31 398.393 21.31H399.174C401.153 21.31 402.72 22.9159 402.72 24.9449V51.1767C402.72 53.2058 401.153 54.8117 399.174 54.8117C397.195 54.8117 395.677 53.1603 395.677 51.1767V34.7125L389.464 44.5255C388.728 45.6583 387.809 46.368 386.518 46.368C385.226 46.368 384.308 45.6583 383.571 44.5255L377.452 34.8535V51.2723C377.452 53.2558 375.885 54.8117 373.955 54.8117C372.024 54.8117 370.502 53.2558 370.502 51.2723V24.9449V24.9404Z" fill="black"/>
<path d="M410.452 49.9817V24.8511C410.452 22.8719 411.998 21.3054 413.951 21.3054H431.574C433.299 21.3054 434.71 22.7299 434.71 24.4828C434.71 26.2357 433.299 27.6114 431.574 27.6114H417.402V34.1481H429.529C431.254 34.1481 432.664 35.5726 432.664 37.321C432.664 39.0695 431.254 40.4496 429.529 40.4496H417.402V47.2171H431.802C433.527 47.2171 434.937 48.646 434.937 50.3944C434.937 52.1429 433.527 53.523 431.802 53.523H413.951C411.998 53.523 410.452 51.9565 410.452 49.9773V49.9817Z" fill="black"/>
<path d="M441.385 24.9622C441.385 22.921 442.962 21.3054 444.955 21.3054H456.212C460.335 21.3054 463.534 22.4908 465.665 24.6739C467.47 26.5229 468.443 29.1362 468.443 32.2667V32.3628C468.443 37.5849 465.897 40.8115 461.957 42.4728L466.916 48.6423C467.613 49.5439 468.073 50.3036 468.073 51.4432C468.073 53.4844 466.406 54.8117 464.691 54.8117C463.069 54.8117 462.002 54.0062 461.171 52.9124L454.22 43.8916H448.519V51.1549C448.519 53.1961 446.942 54.8117 444.95 54.8117C442.958 54.8117 441.381 53.1961 441.381 51.1549V24.9531L441.385 24.9622ZM455.747 37.4476C459.223 37.4476 461.215 35.5482 461.215 32.7473V32.6512C461.215 29.5161 459.085 27.9051 455.609 27.9051H448.519V37.4476H455.747Z" fill="black"/>
<path d="M66.3682 85.6264C66.3682 79.214 71.3771 74.1422 77.7099 74.1422H114.233C126.016 74.1422 135.293 77.4221 141.184 83.3876C145.897 88.16 148.254 93.9736 148.254 101.132V101.432C148.254 113.211 142.067 119.775 134.706 123.949C146.634 128.573 154 135.58 154 149.598V149.897C154 168.987 138.682 178.527 115.416 178.527H77.7144C71.3815 178.527 66.3726 173.455 66.3726 167.043V85.6219L66.3682 85.6264ZM109.374 116.348C119.388 116.348 125.721 113.068 125.721 105.31V105.011C125.721 98.1517 120.42 94.273 110.844 94.273H88.4604V116.343H109.374V116.348ZM115.411 158.401C125.425 158.401 131.466 154.822 131.466 147.069V146.769C131.466 139.763 126.312 135.437 114.679 135.437H88.4648V158.401H115.416H115.411Z" fill="black"/>
<path d="M166.936 163.049L203.237 81.8448C205.765 76.2451 210.379 72.8535 216.625 72.8535H217.962C224.212 72.8535 228.675 76.2451 231.202 81.8448L267.504 163.049C268.249 164.669 268.695 166.144 268.695 167.619C268.695 173.661 263.933 178.527 257.835 178.527C252.481 178.527 248.91 175.431 246.823 170.715L239.833 154.503H194.009L186.72 171.453C184.786 175.873 180.916 178.527 176.159 178.527C170.208 178.527 165.598 173.811 165.598 167.915C165.598 166.295 166.196 164.674 166.936 163.053V163.049ZM231.354 134.459L216.923 100.415L202.493 134.459H231.354Z" fill="black"/>
<path d="M283.293 167.343C280.781 165.563 279.004 162.291 279.004 158.725C279.004 152.783 283.736 148.18 289.652 148.18C292.607 148.18 294.681 149.222 296.156 150.259C303.995 156.054 312.569 159.615 322.627 159.615C331.941 159.615 337.564 155.903 337.564 149.809V149.511C337.564 143.715 334.014 140.746 316.716 136.29C295.868 130.944 282.412 125.148 282.412 104.498V104.2C282.412 85.3352 297.494 72.8535 318.639 72.8535C331.21 72.8535 342.15 76.1209 351.468 82.0635C353.98 83.5502 356.497 86.6662 356.497 91.1265C356.497 97.0691 351.765 101.672 345.849 101.672C343.63 101.672 341.857 101.08 340.08 100.038C332.539 95.5823 325.44 93.0584 318.342 93.0584C309.618 93.0584 305.036 97.0691 305.036 102.121V102.42C305.036 109.253 309.471 111.483 327.364 116.085C348.362 121.583 360.192 129.159 360.192 147.281V147.579C360.192 168.229 344.52 179.816 322.188 179.816C308.585 179.816 294.831 175.658 283.298 167.339L283.293 167.343Z" fill="black"/>
<path d="M380.812 85.4321C380.812 79.1282 385.846 74.1422 392.21 74.1422C398.575 74.1422 403.609 79.1282 403.609 85.4321V115.634H445.646V85.4321C445.646 79.1282 450.68 74.1422 457.045 74.1422C463.41 74.1422 468.444 79.1282 468.444 85.4321V167.237C468.444 173.541 463.41 178.527 457.045 178.527C450.68 178.527 445.646 173.541 445.646 167.237V136.452H403.609V167.237C403.609 173.541 398.575 178.527 392.21 178.527C385.846 178.527 380.812 173.541 380.812 167.237V85.4321Z" fill="black"/>
</svg>
