<svg width="500" height="500" viewBox="0 0 500 500" fill="none" xmlns="http://www.w3.org/2000/svg">
<path d="M348.028 181.136H263.209V158.425C278.505 152.863 289.165 138.495 289.165 121.346C289.165 99.5618 271.552 81.9492 249.768 81.9492C227.984 81.9492 210.372 99.5618 210.372 121.346C210.372 138.495 221.032 152.863 236.327 158.425V181.136H151.509C114.429 181.136 84.3026 211.263 84.3026 248.342V330.843C84.3026 367.922 114.429 398.049 151.509 398.049H348.491C385.571 398.049 415.697 367.922 415.697 330.843V248.342C415.697 211.263 385.571 181.136 348.028 181.136ZM388.352 330.843C388.352 353.09 370.275 371.166 348.028 371.166H151.509C129.261 371.166 111.185 353.09 111.185 330.843V248.342C111.185 226.094 129.261 208.018 151.509 208.018H348.491C370.739 208.018 388.815 226.094 388.815 248.342V330.843H388.352Z" fill="black"/>
<path d="M224.74 255.761C219.641 250.663 210.835 250.663 205.737 255.761L191.368 270.129L177 255.761C171.902 250.663 163.096 250.663 157.997 255.761C152.899 260.86 152.899 269.666 157.997 274.764L172.365 289.132L157.997 303.501C152.899 308.599 152.899 317.405 157.997 322.504C160.778 325.285 164.022 326.675 167.73 326.675C171.438 326.675 174.683 325.285 177.464 322.504L191.832 308.136L206.2 322.504C208.981 325.285 212.225 326.675 215.933 326.675C219.641 326.675 222.886 325.285 225.667 322.504C230.765 317.405 230.765 308.599 225.667 303.501L211.298 289.132L225.667 274.764C229.838 269.666 229.838 261.323 224.74 255.761Z" fill="white"/>
<path d="M342.003 255.761C336.904 250.663 328.098 250.663 323 255.761L308.632 270.129L294.263 255.761C289.165 250.663 280.359 250.663 275.26 255.761C270.162 260.86 270.162 269.666 275.26 274.764L289.628 289.132L275.26 303.501C270.162 308.599 270.162 317.405 275.26 322.504C278.041 325.285 281.286 326.675 284.994 326.675C288.701 326.675 291.946 325.285 294.727 322.504L309.095 308.136L323.463 322.504C326.244 325.285 329.489 326.675 333.196 326.675C336.904 326.675 340.149 325.285 342.93 322.504C348.028 317.405 348.028 308.599 342.93 303.501L328.562 289.132L342.93 274.764C347.565 269.666 347.565 261.323 342.003 255.761Z" fill="black"/>
</svg>
