<svg width="500" height="337" viewBox="0 0 500 337" fill="none" xmlns="http://www.w3.org/2000/svg">
<path d="M324.934 299.352H174.707C144.158 299.352 119 274.554 119 243.645V93.4175C119 62.5093 144.158 37.3516 174.707 37.3516H324.934C355.843 37.3516 381 62.5093 381 93.4175V243.645C381 274.554 355.843 299.352 324.934 299.352ZM174.707 69.6973C161.768 69.6973 150.986 80.4792 150.986 93.4175V243.645C150.986 256.584 161.768 267.366 174.707 267.366H324.934C337.873 267.366 348.655 256.584 348.655 243.645V93.4175C348.655 80.4792 337.873 69.6973 324.934 69.6973H174.707Z" fill="white"/>
<path d="M249.82 211.659C218.193 211.659 192.317 185.783 192.317 154.156C192.317 146.249 198.786 139.78 206.693 139.78C214.6 139.78 221.069 146.249 221.069 154.156C221.069 169.969 234.007 182.907 249.82 182.907C265.634 182.907 278.572 169.969 278.572 154.156C278.572 146.249 285.041 139.78 292.948 139.78C300.855 139.78 307.324 146.249 307.324 154.156C307.324 185.783 281.807 211.659 249.82 211.659Z" fill="white"/>
</svg>
