<svg width="60" height="51" viewBox="0 0 60 51" fill="none" xmlns="http://www.w3.org/2000/svg">
<path d="M34.411 0.659146L34.4404 9.23456L32.1123 9.24253L32.0902 2.81097L32.04 2.81114L30.168 3.93974L30.1612 1.96337L32.2671 0.666487L34.411 0.659146Z" fill="black"/>
<path d="M39.9369 9.45022C39.158 9.4501 38.4847 9.27235 37.9168 8.91698C37.3489 8.56161 36.9103 8.04808 36.6009 7.37639C36.2915 6.7047 36.1366 5.89848 36.1362 4.95774C36.1358 4.01422 36.2866 3.21254 36.5886 2.55271C36.8934 1.89287 37.3271 1.39031 37.8898 1.04502C38.4553 0.699733 39.1275 0.525753 39.9063 0.523087C40.6851 0.52042 41.3585 0.691188 41.9263 1.03539C42.4942 1.3768 42.9328 1.87638 43.2421 2.53411C43.5514 3.19185 43.7063 3.99109 43.7067 4.93182C43.7099 5.87813 43.5592 6.68819 43.2544 7.36198C42.9497 8.03578 42.5146 8.5523 41.9491 8.91155C41.3864 9.268 40.7157 9.44756 39.9369 9.45022ZM39.9304 7.5576C40.3324 7.55623 40.661 7.34574 40.9164 6.92614C41.1746 6.50374 41.3007 5.84172 41.2949 4.94008C41.2928 4.35108 41.2326 3.86975 41.114 3.49609C40.9955 3.12244 40.8327 2.84664 40.6255 2.66869C40.4183 2.48795 40.1807 2.39804 39.9127 2.39896C39.5108 2.40033 39.1835 2.60524 38.9308 3.01366C38.6782 3.42209 38.5506 4.06736 38.548 4.94949C38.5473 5.54966 38.6062 6.04356 38.7248 6.43117C38.8434 6.81599 39.0062 7.10017 39.2134 7.2837C39.4234 7.46722 39.6624 7.55852 39.9304 7.5576Z" fill="black"/>
<path d="M44.7974 9.19909L44.7681 0.623683L47.0962 0.615712L47.108 4.08272L47.2253 4.08232L49.7927 0.606479L52.506 0.597188L49.6216 4.42585L52.6024 9.17237L49.8221 9.18189L47.885 5.97271L47.1179 6.98028L47.1255 9.19112L44.7974 9.19909Z" fill="black"/>
<path d="M31.4611 18.239C31.4243 18.0912 31.3666 17.9616 31.2881 17.8502C31.2095 17.736 31.1115 17.64 30.994 17.5623C30.8792 17.4817 30.745 17.4221 30.5914 17.3836C30.4405 17.3422 30.2743 17.3219 30.0929 17.3225C29.7021 17.3238 29.3688 17.4185 29.0931 17.6065C28.8202 17.7944 28.6117 18.0645 28.4678 18.4167C28.3266 18.7689 28.2569 19.1935 28.2586 19.6904C28.2603 20.1928 28.3302 20.6225 28.4682 20.9793C28.6062 21.3362 28.8109 21.609 29.0823 21.7979C29.3538 21.9868 29.6905 22.0806 30.0924 22.0792C30.4469 22.078 30.7413 22.0253 30.9754 21.9213C31.2123 21.8172 31.3891 21.67 31.5057 21.4798C31.6223 21.2896 31.6801 21.066 31.6792 20.8092L32.0814 20.8497L30.1217 20.8564L30.1161 19.1983L33.918 19.1853L33.9221 20.3744C33.9248 21.1561 33.761 21.8252 33.4307 22.3818C33.1032 22.9357 32.6496 23.3615 32.07 23.6594C31.4932 23.9545 30.8307 24.1033 30.0826 24.1059C29.248 24.1087 28.5146 23.934 27.8825 23.5816C27.2504 23.2293 26.756 22.7257 26.3992 22.0709C26.0453 21.4161 25.8667 20.6365 25.8636 19.7321C25.8612 19.023 25.9665 18.3946 26.1796 17.8467C26.3955 17.2989 26.6954 16.8358 27.0793 16.4577C27.4632 16.0767 27.9075 15.7891 28.4121 15.5947C28.9167 15.3976 29.4579 15.298 30.0357 15.296C30.5437 15.2943 31.0158 15.3653 31.4517 15.5089C31.8905 15.6498 32.2778 15.8523 32.6137 16.1163C32.9523 16.3775 33.2256 16.6879 33.4334 17.0472C33.6412 17.4066 33.7681 17.8012 33.8143 18.2309L31.4611 18.239Z" fill="black"/>
<path d="M43.3127 19.6556C43.316 20.6103 43.1331 21.4162 42.7641 22.0735C42.3951 22.728 41.8957 23.2252 41.266 23.5651C40.6363 23.9023 39.9334 24.0722 39.1574 24.0748C38.3757 24.0775 37.6689 23.911 37.0369 23.5754C36.4076 23.237 35.9063 22.7418 35.5328 22.0899C35.162 21.4352 34.9751 20.6332 34.9718 19.6841C34.9685 18.7295 35.15 17.9249 35.5163 17.2704C35.8853 16.6131 36.3833 16.1159 37.0102 15.7788C37.6399 15.4389 38.3456 15.2676 39.1272 15.2649C39.9032 15.2623 40.6072 15.4287 41.2393 15.7643C41.8713 16.0972 42.3741 16.5909 42.7476 17.2457C43.1211 17.8976 43.3095 18.7009 43.3127 19.6556ZM40.9176 19.6638C40.9159 19.1502 40.846 18.7177 40.708 18.3664C40.5728 18.0124 40.3723 17.7451 40.1065 17.5646C39.8435 17.3812 39.5193 17.2902 39.1341 17.2915C38.7489 17.2928 38.424 17.3861 38.1594 17.5712C37.8977 17.7536 37.699 18.0222 37.5634 18.3772C37.4306 18.7294 37.3651 19.1623 37.3669 19.6759C37.3686 20.1896 37.4371 20.6234 37.5723 20.9775C37.7103 21.3287 37.9108 21.596 38.1739 21.7794C38.4397 21.9599 38.7652 22.0495 39.1504 22.0482C39.5356 22.0469 39.8591 21.955 40.1209 21.7727C40.3855 21.5876 40.5841 21.3189 40.7169 20.9667C40.8525 20.6117 40.9194 20.1774 40.9176 19.6638Z" fill="black"/>
<path d="M46.091 23.9338L43.5786 23.9424L46.3798 15.3573L49.5621 15.3464L52.422 23.9121L49.9097 23.9207L48.0126 17.7134L47.9456 17.7136L46.091 23.9338ZM45.6104 20.5522L50.3336 20.536L50.3396 22.2779L45.6164 22.294L45.6104 20.5522Z" fill="black"/>
<path d="M53.248 23.9093L53.2186 15.3339L55.5467 15.3259L55.5696 22.0255L59.0366 22.0136L59.0431 23.8895L53.248 23.9093Z" fill="black"/>
<path d="M42.0594 29.6421C42.0594 40.2536 34.3464 48.8559 24.832 48.8559C15.3176 48.8559 7.60464 40.2536 7.60464 29.6421" stroke="black" stroke-width="3.5" stroke-linecap="round"/>
<path d="M6.02051 26.9919L2.55523 38.5312" stroke="black" stroke-width="3.5" stroke-linecap="round"/>
<path d="M6.02051 26.9919L14.0401 32.7616" stroke="black" stroke-width="3.5" stroke-linecap="round"/>
</svg>
