<svg width="450" height="450" viewBox="0 0 450 450" fill="none" xmlns="http://www.w3.org/2000/svg">
<g clip-path="url(#clip0_1_11)">
<path d="M440 -47L241.489 197.153L485 9L440 -47Z" fill="#EEEEEE" fill-opacity="0.2"/>
<path d="M57 -17L78 -31L130.5 62L213.873 191.798L57 -17Z" fill="#EEEEEE" fill-opacity="0.2"/>
<path d="M373 456L238.108 239.986L438 456H373Z" fill="#EEEEEE" fill-opacity="0.2"/>
<path d="M479 178L247.971 214.061L479 233V178Z" fill="#EEEEEE" fill-opacity="0.2"/>
<path d="M50 461L196.965 264.503L117 461H50Z" fill="#EEEEEE" fill-opacity="0.2"/>
<path d="M-36 198L202.319 215.47L-36 239V198Z" fill="#EEEEEE" fill-opacity="0.2"/>
<path d="M-17 11L205.982 197.716L-17 71V11Z" fill="#EEEEEE" fill-opacity="0.2"/>
<path d="M243 -31L229.654 187.853L290 -31H243Z" fill="#EEEEEE" fill-opacity="0.2"/>
<path d="M209 481L224.581 243.368L258 481H209Z" fill="#EEEEEE" fill-opacity="0.2"/>
<path d="M-58 407L205.982 233.787L-5 464L-58 407Z" fill="#EEEEEE" fill-opacity="0.2"/>
<path d="M535 357L240.926 224.769L511 384L535 357Z" fill="#EEEEEE" fill-opacity="0.2"/>
<path d="M523 57L295.877 180.526L523 105V57Z" fill="#EEEEEE" fill-opacity="0.2"/>
<path d="M558.159 145.327L250.3 210.442L557.959 217.167L558.159 145.327Z" fill="#EEEEEE" fill-opacity="0.2"/>
<path d="M241.421 -72.0797L266.553 -69.7685L248.929 35.5626L232.187 188.919L241.421 -72.0797Z" fill="#EEEEEE" fill-opacity="0.2"/>
<path d="M189.882 494.426L220.746 241.631L240.436 535.283L189.882 494.426Z" fill="#EEEEEE" fill-opacity="0.2"/>
<path d="M447.065 344.837L244.713 227.667L412.494 387.614L447.065 344.837Z" fill="#EEEEEE" fill-opacity="0.2"/>
<path d="M-64.4769 295.289L173.337 234.838L-12.3671 337.403L-64.4769 295.289Z" fill="#EEEEEE" fill-opacity="0.2"/>
<path d="M33.948 36.682L208.322 200.068L8.17689 68.5701L33.948 36.682Z" fill="#EEEEEE" fill-opacity="0.2"/>
<path d="M166.267 -96.8162L222.33 188.562L128.553 -50.1506L166.267 -96.8162Z" fill="#EEEEEE" fill-opacity="0.2"/>
<path d="M394.884 33.9444L246.94 195.77L431.438 63.4868L394.884 33.9444Z" fill="#EEEEEE" fill-opacity="0.2"/>
<path d="M46.6155 410.786L208.101 235.759L84.7257 441.585L46.6155 410.786Z" fill="#EEEEEE" fill-opacity="0.2"/>
<path d="M-114.532 185.405L199.658 216.617L-109.139 263.051L-114.532 185.405Z" fill="#EEEEEE" fill-opacity="0.2"/>
<path d="M378.107 519.255L232.503 231.567L342.469 525.169L378.107 519.255Z" fill="#EEEEEE" fill-opacity="0.2"/>
<path d="M557.342 278.385L303.051 231.697L527.171 315.717L557.342 278.385Z" fill="#EEEEEE" fill-opacity="0.2"/>
</g>
<defs>
<clipPath id="clip0_1_11">
<rect width="450" height="450" fill="white"/>
</clipPath>
</defs>
</svg>
