<svg xmlns:xlink="http://www.w3.org/1999/xlink" width="450" xmlns="http://www.w3.org/2000/svg" height="450" id="screenshot-bc78c679-8093-803a-8002-6b9026419639" viewBox="0 0 450 450" style="-webkit-print-color-adjust: exact;" fill="none" version="1.1"><g id="shape-bc78c679-8093-803a-8002-6b9026419639"><defs><clipPath class="frame-clip-def frame-clip" id="frame-clip-bc78c679-8093-803a-8002-6b9026419639-rumext-id-1"><rect rx="0" ry="0" x="0" y="0" width="450" height="450" transform="matrix(1.000000, 0.000000, 0.000000, 1.000000, 0.000000, 0.000000)"/></clipPath></defs><g clip-path="url(#frame-clip-bc78c679-8093-803a-8002-6b9026419639-rumext-id-1)"><clipPath class="frame-clip-def frame-clip" id="frame-clip-bc78c679-8093-803a-8002-6b9026419639-rumext-id-1"><rect rx="0" ry="0" x="0" y="0" width="450" height="450" transform="matrix(1.000000, 0.000000, 0.000000, 1.000000, 0.000000, 0.000000)"/></clipPath><g class="fills" id="fills-bc78c679-8093-803a-8002-6b9026419639"><rect rx="0" ry="0" x="0" y="0" transform="matrix(1.000000, 0.000000, 0.000000, 1.000000, 0.000000, 0.000000)" width="450" height="450" class="frame-background"/></g><g class="frame-children"><g id="shape-bc78c679-8093-803a-8002-6b902641963a" rx="0" ry="0"><g id="shape-bc78c679-8093-803a-8002-6b902641963c"><g class="fills" id="fills-bc78c679-8093-803a-8002-6b902641963c"><ellipse class="cls-4" rx="56.49999999999818" ry="56.5" cx="78.50000000000182" cy="310.4999999999991" transform="matrix(1.000000, 0.000000, 0.000000, 1.000000, 0.000000, 0.000000)" style="fill: rgb(250, 176, 65); fill-opacity: 1;"/></g></g><g id="shape-bc78c679-8093-803a-8002-6b902641963d"><g class="fills" id="fills-bc78c679-8093-803a-8002-6b902641963d"><ellipse class="cls-7" rx="81.5" ry="81.50000000000045" cx="355.5" cy="284.50000000000045" transform="matrix(1.000000, 0.000000, 0.000000, 1.000000, 0.000000, 0.000000)" style="fill: rgb(130, 85, 229); fill-opacity: 1;"/></g></g><g id="shape-bc78c679-8093-803a-8002-6b902641963e"><g class="fills" id="fills-bc78c679-8093-803a-8002-6b902641963e"><ellipse class="cls-6" rx="78.50000000000182" ry="78.49999999999977" cx="117.50000000000182" cy="151.50000000000023" transform="matrix(1.000000, 0.000000, 0.000000, 1.000000, 0.000000, 0.000000)" style="fill: rgb(74, 198, 142); fill-opacity: 1;"/></g></g><g id="shape-bc78c679-8093-803a-8002-6b9026419640"><g class="fills" id="fills-bc78c679-8093-803a-8002-6b9026419640"><ellipse class="cls-5" rx="31" ry="31" cx="383" cy="66" transform="matrix(1.000000, 0.000000, 0.000000, 1.000000, 0.000000, 0.000000)" style="fill: rgb(255, 137, 63); fill-opacity: 1;"/></g></g><g id="shape-bc78c679-8093-803a-8002-6b9026419642"><g class="fills" id="fills-bc78c679-8093-803a-8002-6b9026419642"><ellipse class="cls-4" rx="18.5" ry="18.5" cx="153.5" cy="410.5" transform="matrix(1.000000, 0.000000, 0.000000, 1.000000, 0.000000, 0.000000)" style="fill: rgb(250, 176, 65); fill-opacity: 1;"/></g></g><g id="shape-bc78c679-8093-803a-8002-6b9026419644"><g class="fills" id="fills-bc78c679-8093-803a-8002-6b9026419644"><ellipse class="cls-6" rx="9.500000000001819" ry="9.499999999999773" cx="38.50000000000182" cy="44.49999999999977" transform="matrix(1.000000, 0.000000, 0.000000, 1.000000, 0.000000, 0.000000)" style="fill: rgb(74, 198, 142); fill-opacity: 1;"/></g></g><g id="shape-bc78c679-8093-803a-8002-6b9026419645"><g class="fills" id="fills-bc78c679-8093-803a-8002-6b9026419645"><ellipse class="cls-7" rx="9.5" ry="9.499999999999545" cx="144.5" cy="357.49999999999955" transform="matrix(1.000000, 0.000000, 0.000000, 1.000000, 0.000000, 0.000000)" style="fill: rgb(131, 84, 229); fill-opacity: 1;"/></g></g></g></g></g></g></svg>