<svg xmlns:xlink="http://www.w3.org/1999/xlink" width="450" xmlns="http://www.w3.org/2000/svg" height="450" id="screenshot-bc78c679-8093-803a-8002-6b8fbe1b2466" viewBox="0 0 450 450" style="-webkit-print-color-adjust: exact;" fill="none" version="1.1"><g id="shape-bc78c679-8093-803a-8002-6b8fbe1b2466"><defs><clipPath class="frame-clip-def frame-clip" id="frame-clip-bc78c679-8093-803a-8002-6b8fbe1b2466-rumext-id-18"><rect rx="0" ry="0" x="0" y="0" width="450" height="450" transform="matrix(1.000000, 0.000000, 0.000000, 1.000000, 0.000000, 0.000000)"/></clipPath></defs><g clip-path="url(#frame-clip-bc78c679-8093-803a-8002-6b8fbe1b2466-rumext-id-18)"><clipPath class="frame-clip-def frame-clip" id="frame-clip-bc78c679-8093-803a-8002-6b8fbe1b2466-rumext-id-18"><rect rx="0" ry="0" x="0" y="0" width="450" height="450" transform="matrix(1.000000, 0.000000, 0.000000, 1.000000, 0.000000, 0.000000)"/></clipPath><g class="fills" id="fills-bc78c679-8093-803a-8002-6b8fbe1b2466"><rect rx="0" ry="0" x="0" y="0" transform="matrix(1.000000, 0.000000, 0.000000, 1.000000, 0.000000, 0.000000)" width="450" height="450" class="frame-background"/></g><g class="frame-children"><g id="shape-bc78c679-8093-803a-8002-6b8d3a045835" rx="0" ry="0"><g id="shape-bc78c679-8093-803a-8002-6b8d3a045836"><g class="fills" id="fills-bc78c679-8093-803a-8002-6b8d3a045836"><path rx="0" ry="0" d="M407.210,250.263C407.210,226.414,394.000,205.734,374.780,195.933C377.108,189.361,378.376,182.276,378.376,174.801C378.376,141.446,349.073,102.395,299.760,105.122C292.673,105.512,306.838,115.731,300.568,118.231C291.232,98.055,272.064,74.788,231.480,74.788C208.682,74.788,206.172,98.081,196.792,118.205C190.530,115.713,183.721,114.437,176.626,114.437C144.770,114.437,118.984,141.455,118.984,174.810C118.984,182.268,120.235,189.361,122.562,195.941C103.360,205.752,90.150,226.397,90.150,250.272C90.150,272.836,101.953,292.500,119.470,302.883C119.175,305.453,102.474,290.807,102.266,293.420C99.443,327.921,114.572,367.883,176.634,371.009C196.367,372.007,175.775,364.966,182.036,362.492C191.399,382.625,210.740,401.195,248.684,401.195C271.517,401.195,291.232,387.374,300.577,367.232C306.847,369.689,313.639,370.974,320.743,370.974C352.599,370.974,378.384,343.956,378.384,310.601C378.384,307.971,378.202,305.409,377.889,302.857C395.372,292.491,407.227,272.818,407.210,250.263ZL407.210,250.263ZZ" style="fill: rgb(0, 0, 0); fill-opacity: 1;"/></g></g><g id="shape-bc78c679-8093-803a-8002-6b8d3a0481ee"><g class="fills" id="fills-bc78c679-8093-803a-8002-6b8d3a0481ee"><path rx="0" ry="0" d="M248.658,408.983C213.945,408.983,194.004,394.562,182.592,378.840C180.412,378.996,178.189,378.883,176.218,378.788C147.644,377.346,125.949,368.395,111.750,352.195C98.696,337.297,92.556,316.201,94.475,292.786C94.536,292.005,94.719,291.241,94.988,290.529C86.911,279.017,82.334,264.952,82.334,250.272C82.334,226.301,94.050,204.640,113.304,192.269C111.889,186.608,111.168,180.766,111.168,174.810C111.168,137.227,140.523,106.650,176.608,106.650C182.045,106.650,187.343,107.309,192.415,108.612C193.275,106.467,194.091,104.297,194.899,102.170C201.152,85.683,208.230,67.000,231.462,67.000C259.566,67.000,281.982,77.505,297.276,97.621C297.902,97.482,298.579,97.386,299.309,97.351C322.984,96.032,344.991,103.793,361.258,119.177C376.847,133.919,386.157,154.720,386.157,174.810C386.157,180.757,385.437,186.608,384.012,192.278C403.275,204.649,415.000,226.310,415.000,250.280L415.000,250.298C415.000,273.018,404.022,294.245,386.053,306.859C386.123,308.127,386.157,309.377,386.157,310.618C386.157,348.202,356.803,378.779,320.717,378.779C315.106,378.779,309.635,378.076,304.381,376.687C292.526,396.785,271.734,409.000,248.658,408.983ZL248.658,408.983ZM182.010,354.696C184.963,354.696,187.768,356.380,189.080,359.202C199.632,381.896,219.677,393.399,248.658,393.399C267.869,393.399,285.048,382.113,293.481,363.950C295.218,360.209,299.560,358.472,303.399,359.983C308.810,362.110,314.637,363.186,320.717,363.186C348.204,363.186,370.568,339.598,370.568,310.610C370.568,308.431,370.420,306.208,370.134,303.821C369.752,300.747,371.228,297.743,373.894,296.163C389.631,286.830,399.411,269.250,399.411,250.280L399.411,250.263C399.411,230.208,388.346,211.603,371.228,202.869C367.745,201.090,366.121,197.018,367.424,193.328C369.509,187.424,370.568,181.191,370.568,174.793C370.568,158.896,363.082,142.332,350.549,130.472C342.490,122.850,329.159,114.177,309.548,112.918C310.095,114.828,310.234,116.920,309.522,119.151C308.601,122.025,306.439,124.265,303.443,125.463C299.595,127.000,295.218,125.255,293.481,121.495C281.531,95.667,260.669,82.566,231.471,82.566C220.128,82.566,216.246,89.833,209.481,107.674C207.770,112.188,205.998,116.851,203.844,121.478C202.099,125.220,197.730,126.947,193.900,125.428C188.524,123.292,182.714,122.207,176.608,122.207C149.121,122.207,126.757,145.796,126.757,174.784C126.757,181.200,127.808,187.433,129.892,193.319C131.195,197.000,129.562,201.072,126.088,202.852C108.719,211.725,97.923,229.887,97.923,250.246C97.923,269.241,107.694,286.830,123.422,296.155C126.071,297.726,127.547,300.704,127.191,303.760C126.853,306.651,125.081,309.073,122.441,310.245C118.420,312.034,115.024,310.471,109.961,307.024C110.777,317.868,114.016,331.107,123.483,341.907C134.165,354.105,150.823,361.172,173.030,362.952C173.056,362.692,173.091,362.431,173.143,362.162C173.421,360.686,174.550,357.048,179.162,355.225C180.100,354.852,181.072,354.678,182.010,354.696ZL182.010,354.696Z" style="fill: rgb(0, 0, 0); fill-opacity: 1;"/></g></g><g id="shape-bc78c679-8093-803a-8002-6b8d3a0481ef"><g class="fills" id="fills-bc78c679-8093-803a-8002-6b8d3a0481ef"><path class="cls-3" rx="0" ry="0" d="M390.005,240.800C390.005,216.951,376.795,196.271,357.575,186.469C359.903,179.897,361.171,172.813,361.171,165.338C361.171,131.983,335.351,105.000,303.529,105.000C296.434,105.000,289.634,106.268,283.363,108.777C274.027,88.600,254.286,74.788,231.488,74.788C208.690,74.788,188.967,88.626,179.596,108.742C173.334,106.250,166.525,104.974,159.430,104.974C127.573,104.974,101.788,131.992,101.788,165.347C101.788,172.804,103.039,179.897,105.366,186.478C86.164,196.289,72.954,216.934,72.954,240.809C72.954,263.372,84.757,283.037,102.274,293.420C101.979,295.990,101.788,298.551,101.788,301.173C101.788,334.528,127.573,361.546,159.430,361.546C166.525,361.546,173.325,360.252,179.587,357.769C188.950,377.902,208.664,391.732,231.480,391.732C254.295,391.732,274.027,377.911,283.372,357.769C289.642,360.226,296.434,361.511,303.538,361.511C335.394,361.511,361.180,334.493,361.180,301.138C361.180,298.507,360.997,295.946,360.685,293.394C378.167,283.028,390.022,263.355,390.005,240.800ZL390.005,240.800ZZ" style="fill: rgb(252, 252, 252); fill-opacity: 1;"/></g></g><g id="shape-bc78c679-8093-803a-8002-6b8d3a0481f0"><g class="fills" id="fills-bc78c679-8093-803a-8002-6b8d3a0481f0"><path rx="0" ry="0" d="M231.453,399.520C208.395,399.520,187.603,387.304,175.740,367.223C170.477,368.630,165.014,369.333,159.404,369.333C123.318,369.333,93.963,338.756,93.963,301.164C93.963,299.931,93.998,298.681,94.067,297.405C76.098,284.790,65.120,263.546,65.120,240.800C65.120,216.830,76.836,195.169,96.091,182.797C94.675,177.137,93.954,171.294,93.954,165.338C93.954,127.755,123.309,97.178,159.395,97.178C165.031,97.178,170.503,97.881,175.749,99.287C187.630,79.207,208.421,67.000,231.462,67.000C254.503,67.000,275.356,79.484,287.158,99.322C292.395,97.924,297.876,97.212,303.512,97.212C339.598,97.212,368.953,127.781,368.953,165.347C368.953,171.294,368.232,177.145,366.808,182.814C386.071,195.186,397.795,216.847,397.795,240.817L397.795,240.835C397.795,263.555,386.818,284.782,368.848,297.396C368.918,298.664,368.953,299.914,368.953,301.155C368.953,338.739,339.598,369.316,303.512,369.316C297.902,369.316,292.430,368.613,287.176,367.223C275.321,387.322,254.529,399.537,231.453,399.520ZZM179.561,349.973C182.514,349.973,185.319,351.657,186.631,354.479C195.081,372.641,212.251,383.927,231.453,383.927C250.656,383.927,267.843,372.641,276.276,354.479C278.013,350.737,282.356,349.000,286.194,350.511C291.605,352.638,297.433,353.715,303.512,353.715C331.000,353.715,353.363,330.126,353.363,301.138C353.363,298.959,353.216,296.736,352.929,294.349C352.547,291.276,354.023,288.272,356.690,286.692C372.427,277.359,382.206,259.778,382.206,240.809L382.206,240.791C382.206,220.736,371.141,202.131,354.023,193.398C350.541,191.618,348.917,187.546,350.219,183.856C352.304,177.953,353.363,171.719,353.363,165.321C353.363,136.341,331.000,112.770,303.512,112.770C297.398,112.770,291.588,113.855,286.229,115.991C282.382,117.528,278.004,115.783,276.268,112.024C267.861,93.853,250.691,82.558,231.462,82.558C212.234,82.558,195.099,93.844,186.631,112.015C184.885,115.757,180.525,117.484,176.687,115.965C171.319,113.829,165.500,112.744,159.395,112.744C131.907,112.744,109.544,136.332,109.544,165.321C109.544,171.737,110.594,177.970,112.679,183.856C113.982,187.537,112.349,191.609,108.875,193.389C91.505,202.262,80.710,220.424,80.710,240.782C80.710,259.778,90.480,277.367,106.209,286.692C108.858,288.263,110.334,291.241,109.978,294.297C109.691,296.780,109.552,299.020,109.552,301.147C109.552,330.144,131.916,353.732,159.404,353.732C165.457,353.732,171.276,352.647,176.695,350.502C177.633,350.129,178.606,349.955,179.561,349.973ZZ" style="fill: rgb(0, 0, 0); fill-opacity: 1;"/></g></g><g id="shape-bc78c679-8093-803a-8002-6b8d3a0481f2"><g class="fills" id="fills-bc78c679-8093-803a-8002-6b8d3a0481f2"><path class="cls-5" rx="0" ry="0" d="M351.843,277.298C350.862,277.298,349.898,276.820,349.307,275.935C348.387,274.537,348.769,272.653,350.167,271.733C359.669,265.456,365.566,253.597,365.566,240.782C365.566,227.230,358.896,214.685,348.578,208.816C347.119,207.992,346.615,206.134,347.440,204.684C348.265,203.225,350.124,202.722,351.574,203.546C363.950,210.579,371.636,224.851,371.636,240.774C371.636,255.611,364.697,269.406,353.520,276.794C353.007,277.133,352.425,277.298,351.843,277.298ZZ" style="fill: rgb(0, 0, 0); fill-opacity: 1;"/></g></g><g id="shape-bc78c679-8093-803a-8002-6b8d3a0481f3"><g class="fills" id="fills-bc78c679-8093-803a-8002-6b8d3a0481f3"><path class="cls-5" rx="0" ry="0" d="M293.142,130.186C291.761,130.186,290.511,129.239,290.189,127.842C289.807,126.210,290.823,124.577,292.456,124.204C296.364,123.301,300.420,123.032,304.502,123.414C306.170,123.570,307.394,125.046,307.238,126.713C307.082,128.380,305.588,129.613,303.938,129.448C300.498,129.127,297.094,129.352,293.820,130.108C293.585,130.160,293.359,130.186,293.142,130.186ZZ" style="fill: rgb(0, 0, 0); fill-opacity: 1;"/></g></g><g id="shape-bc78c679-8093-803a-8002-6b8d3a0481f4"><g class="fills" id="fills-bc78c679-8093-803a-8002-6b8d3a0481f4"><path class="cls-5" rx="0" ry="0" d="M337.704,179.012C337.392,179.012,337.079,178.968,336.775,178.864C335.177,178.352,334.300,176.642,334.821,175.053C338.408,163.932,335.620,151.213,327.543,141.845L327.491,141.785C324.417,138.242,320.795,135.360,316.722,133.242C315.237,132.469,314.663,130.637,315.436,129.153C316.209,127.668,318.042,127.095,319.527,127.868C324.312,130.359,328.551,133.728,332.137,137.886L332.198,137.956C341.604,148.904,344.826,163.828,340.605,176.920C340.188,178.204,338.999,179.021,337.704,179.012ZZ" style="fill: rgb(0, 0, 0); fill-opacity: 1;"/></g></g></g></g></g></g></svg>