<svg width="240" height="288" viewBox="0 0 240 288" fill="none" xmlns="http://www.w3.org/2000/svg">
<path opacity="0.1" d="M119.849 288C162.553 288 197.172 279.345 197.172 268.669C197.172 257.993 162.553 249.339 119.849 249.339C77.1455 249.339 42.5272 257.993 42.5272 268.669C42.5272 279.345 77.1455 288 119.849 288Z" fill="black"/>
<path d="M119.849 193.305C160.418 193.305 193.305 160.418 193.305 119.849C193.305 79.2807 160.418 46.3933 119.849 46.3933C79.2807 46.3933 46.3933 79.2807 46.3933 119.849C46.3933 160.418 79.2807 193.305 119.849 193.305Z" fill="#FFDE87"/>
<path fill-rule="evenodd" clip-rule="evenodd" d="M119.849 51.932C82.3396 51.932 51.9319 82.3396 51.9319 119.849C51.9319 157.359 82.3396 187.767 119.849 187.767C157.359 187.767 187.767 157.359 187.767 119.849C187.767 82.3396 157.359 51.932 119.849 51.932ZM39.9498 119.849C39.9498 75.7221 75.722 39.9498 119.849 39.9498C163.977 39.9498 199.749 75.7221 199.749 119.849C199.749 163.977 163.977 199.749 119.849 199.749C75.722 199.749 39.9498 163.977 39.9498 119.849Z" fill="black"/>
<path fill-rule="evenodd" clip-rule="evenodd" d="M106.962 41.3279C150.391 39.286 187.313 72.475 189.351 116.192L183.858 116.45L189.351 116.192C191.394 159.909 157.72 196.418 114.291 198.46L113.777 187.426C151.237 185.665 180.118 154.232 178.365 116.709L178.365 116.708C176.616 79.1842 144.937 50.6005 107.477 52.3618L106.962 41.3279Z" fill="white"/>
<path opacity="0.3" fill-rule="evenodd" clip-rule="evenodd" d="M50.3476 122.893C48.3052 78.818 81.979 42.0084 125.408 39.9498L125.922 51.0742C88.4622 52.8499 59.5806 84.5401 61.3337 122.371L61.3337 122.372C63.0828 160.204 94.7621 189.021 132.222 187.246L132.736 198.37C89.3077 200.429 52.3853 166.968 50.3476 122.893Z" fill="black"/>
<path fill-rule="evenodd" clip-rule="evenodd" d="M119.849 51.932C82.3396 51.932 51.9319 82.3396 51.9319 119.849C51.9319 157.359 82.3396 187.767 119.849 187.767C157.359 187.767 187.767 157.359 187.767 119.849C187.767 82.3396 157.359 51.932 119.849 51.932ZM39.9498 119.849C39.9498 75.7221 75.722 39.9498 119.849 39.9498C163.977 39.9498 199.749 75.7221 199.749 119.849C199.749 163.977 163.977 199.749 119.849 199.749C75.722 199.749 39.9498 163.977 39.9498 119.849Z" fill="black"/>
<path d="M134.226 114.715C138.088 113.946 140.595 110.191 139.825 106.329C139.055 102.467 135.301 99.96 131.439 100.73C127.577 101.499 125.07 105.254 125.839 109.116C126.609 112.978 130.364 115.485 134.226 114.715Z" fill="black"/>
<path d="M208.986 90.0122C212.848 89.2425 215.355 85.4878 214.585 81.6257C213.816 77.7636 210.061 75.2567 206.199 76.0263C202.337 76.7959 199.83 80.5506 200.599 84.4127C201.369 88.2748 205.124 90.7818 208.986 90.0122Z" fill="black"/>
<path d="M156.349 128.421C158.759 127.963 160.93 129.344 161.409 131.645C161.889 133.945 164.421 135.561 166.83 135.1C169.239 134.642 170.932 132.224 170.448 129.923C169.969 127.623 171.415 125.549 173.824 125.091C176.233 124.634 178.405 126.015 178.884 128.316C180.265 134.932 175.679 141.489 168.751 142.812C161.823 144.13 154.956 139.751 153.571 133.135C152.789 130.889 154.235 128.819 156.345 128.416L156.349 128.421Z" fill="black"/>
<path fill-rule="evenodd" clip-rule="evenodd" d="M119.877 1.35871e-05C123.428 0.00696573 126.3 2.6804 126.293 5.9713L126.264 18.5392C126.257 21.8301 123.372 24.4923 119.821 24.4853C116.271 24.4784 113.398 21.805 113.406 18.5141L113.435 5.94612C113.442 2.65522 116.327 -0.00693898 119.877 1.35871e-05Z" fill="black"/>
<path fill-rule="evenodd" clip-rule="evenodd" d="M119.23 213.925C122.426 213.932 125.011 216.746 125.004 220.209L124.978 233.441C124.972 236.904 122.376 239.706 119.18 239.699C115.984 239.691 113.399 236.878 113.406 233.414L113.432 220.183C113.438 216.719 116.034 213.917 119.23 213.925Z" fill="black"/>
<path fill-rule="evenodd" clip-rule="evenodd" d="M35.2484 35.2239C37.563 32.9257 41.3064 32.935 43.6095 35.2447L52.4043 44.0646C54.7074 46.3743 54.6981 50.1097 52.3835 52.4079C50.0689 54.7062 46.3254 54.6969 44.0223 52.3872L35.2275 43.5672C32.9244 41.2576 32.9338 37.5221 35.2484 35.2239Z" fill="black"/>
<path fill-rule="evenodd" clip-rule="evenodd" d="M187.315 187.291C189.63 184.993 193.373 185.002 195.676 187.312L204.471 196.132C206.774 198.441 206.765 202.177 204.45 204.475C202.136 206.773 198.392 206.764 196.089 204.454L187.294 195.634C184.991 193.325 185.001 189.589 187.315 187.291Z" fill="black"/>
<path fill-rule="evenodd" clip-rule="evenodd" d="M1.84822e-05 119.176C0.00812699 115.981 2.6825 113.398 5.97339 113.406L18.5413 113.436C21.8322 113.444 24.4934 116.04 24.4853 119.234C24.4772 122.429 21.8029 125.012 18.512 125.004L5.94403 124.974C2.65313 124.966 -0.00809045 122.37 1.84822e-05 119.176Z" fill="black"/>
<path fill-rule="evenodd" clip-rule="evenodd" d="M215.213 119.817C215.222 116.267 217.896 113.397 221.187 113.406L233.755 113.439C237.046 113.448 239.707 116.332 239.699 119.882C239.691 123.431 237.016 126.302 233.725 126.293L221.157 126.259C217.867 126.251 215.205 123.366 215.213 119.817Z" fill="black"/>
<path fill-rule="evenodd" clip-rule="evenodd" d="M52.4069 186.134C54.7057 188.592 54.6973 192.569 52.3882 195.016L43.5683 204.363C41.2592 206.81 37.5237 206.801 35.2249 204.343C32.9261 201.885 32.9345 197.908 35.2436 195.461L44.0635 186.114C46.3726 183.667 50.1081 183.676 52.4069 186.134Z" fill="black"/>
<path fill-rule="evenodd" clip-rule="evenodd" d="M204.474 35.2469C206.773 37.5605 206.764 41.3031 204.455 43.6063L195.635 52.4036C193.326 54.7068 189.591 54.6984 187.292 52.3849C184.993 50.0713 185.001 46.3287 187.311 44.0255L196.13 35.2282C198.44 32.925 202.175 32.9334 204.474 35.2469Z" fill="black"/>
</svg>
